<svg width="50" height="61" viewBox="0 0 50 61" fill="none" xmlns="http://www.w3.org/2000/svg">
<path d="M17.9473 60.6015C10.7211 58.4939 5.05395 54.4991 1.96054 47.4899C-1.38035 39.8924 -0.340964 32.6626 4.23729 25.8739C4.90547 24.8936 5.72213 24.0113 6.58828 23.1291C6.0191 26.3151 6.21707 29.305 8.22161 31.9764C8.7908 31.8539 8.56807 31.4372 8.59282 31.1676C8.81554 29.06 9.58271 27.1483 10.5974 25.3103C11.6367 23.4232 12.9731 21.7566 14.3589 20.1391C15.0766 19.3058 15.7943 18.4726 16.4872 17.6393C20.2241 13.1544 22.1049 8.03224 22.0306 2.22388C22.0306 1.51315 22.0306 0.826931 22.0306 0.116204C22.5008 -0.202398 22.773 0.214236 23.0452 0.410298C29.2568 4.91974 33.3896 10.7771 34.627 18.4236C34.9982 20.7518 34.9487 23.1046 34.6022 25.4328C34.528 26.021 34.2558 26.5847 34.4785 27.1974C34.3795 27.1238 34.3053 27.1238 34.3053 27.2709C34.3053 27.2709 34.3548 27.2954 34.3795 27.2954C34.6022 27.2954 34.2805 27.3199 34.4538 27.1729C37.4729 25.5063 38.7103 22.8105 39.0568 19.5754C39.1558 18.5951 38.9083 17.6393 39.1063 16.659L39.0815 16.6835C39.1805 16.708 39.329 16.6835 39.3785 16.7325C44.3279 21.6831 47.8668 27.4424 49.0547 34.4027C50.8612 44.9655 46.1097 54.0825 36.4088 58.8125C34.825 59.5722 33.2164 60.2339 31.4841 60.6015C31.3851 60.4055 31.2861 60.1849 31.1624 59.9888C33.9341 57.6361 35.8891 54.7932 36.2851 51.117C36.7305 46.9752 35.4437 43.3235 32.5977 39.7699C32.573 40.5541 32.5482 41.0198 32.5235 41.4609C32.375 43.3725 31.3109 44.794 29.6528 45.2596C27.772 45.7988 26.2624 45.1126 25.124 43.6911C23.2185 41.2894 22.674 38.4955 23.07 35.5055C23.2432 34.1576 23.6144 32.8587 23.8867 31.5598C23.5649 31.4372 23.3917 31.5843 23.2185 31.7068C18.8382 35.1869 15.3488 39.3287 13.963 44.892C12.5029 50.7984 13.7898 55.9205 18.566 59.9643C18.5165 60.332 18.1453 60.381 17.9473 60.6015ZM25.421 8.71845C25.0003 8.96353 24.9508 9.35566 24.8766 9.72328C24.6538 11.0222 24.1094 12.1986 23.5649 13.3995C22.0554 16.7815 19.6054 19.5264 17.2791 22.3693C15.819 24.1339 14.3094 25.8739 13.3443 28.0061C12.6514 29.5746 12.3049 31.1676 12.8246 32.8587C13.3691 32.7851 13.4433 32.4175 13.5423 32.1479C15.2746 28.2022 17.9968 24.9181 20.8427 21.7321C22.773 19.5754 24.4558 17.1737 25.1983 14.3062C25.718 12.4927 26.3119 10.6301 25.421 8.71845ZM46.0603 38.667C45.8128 34.9418 44.8971 31.4862 43.3875 28.2022C43.2391 27.8591 42.9668 27.565 42.6946 27.2954C42.1749 26.8052 41.5562 26.9278 41.2345 27.5895C41.0118 28.0061 41.086 28.4228 41.284 28.8394C41.581 29.5501 41.8532 30.2608 42.1749 30.9471C43.3875 33.5939 43.635 36.4368 43.635 39.2307C43.6103 42.0491 42.8431 44.8185 41.9522 47.4899C41.8285 47.8575 41.7542 48.2251 41.8037 48.6172C41.8285 48.7888 41.8532 48.9603 42.0512 48.9848C42.1997 48.9848 42.3729 48.9358 42.4719 48.8378C42.5956 48.7397 42.6699 48.5927 42.7689 48.4702C45.1941 45.6027 45.6643 42.0981 46.0603 38.667Z" fill="#2C6E49"/>
<path d="M18.9122 6.14504C18.5657 8.71836 17.6253 11.2182 16.1158 13.4729C14.9774 15.1639 13.6658 16.7079 12.3047 18.2029C12.0819 18.448 11.8592 18.6931 11.5623 18.8401C11.0178 19.1342 10.4981 19.0852 10.0527 18.6195C9.63196 18.1784 9.68146 17.7127 10.0032 17.2716C10.6219 16.4873 11.2653 15.7766 11.9087 15.0169C14.2597 12.272 16.091 9.28204 16.6107 5.60587C16.7344 4.65006 17.3036 4.28244 18.0708 4.454C18.739 4.62555 18.9617 5.01768 18.9122 6.14504Z" fill="#4C956C"/>
<path d="M39.9968 10.7525C40.467 10.777 40.8135 11.0711 41.1352 11.3652C44.2038 14.1101 46.926 17.1491 49.0543 20.7027C49.2275 20.9723 49.3513 21.2909 49.4008 21.6095C49.4998 22.1487 49.3018 22.5898 48.7821 22.8349C48.3366 23.0309 47.9159 22.9574 47.5695 22.6143C47.3468 22.3937 47.1488 22.0996 46.9755 21.83C45.0947 18.7421 42.6943 16.0462 40.0215 13.5954C39.6503 13.2523 39.3039 12.9092 39.0069 12.5171C38.7099 12.1249 38.7842 11.7083 39.0069 11.2917C39.2544 10.9241 39.5513 10.728 39.9968 10.7525Z" fill="#4C956C"/>
<path d="M19.4073 40.9462C20.1992 40.9462 20.7189 41.5834 20.4467 42.3921C20.1992 43.1028 19.8527 43.7891 19.5558 44.4998C18.5411 46.9506 18.2936 49.4259 19.0608 51.9992C19.4568 53.2981 19.2588 53.8618 18.5411 54.0824C17.7245 54.3519 17.1553 53.9108 16.7841 52.6119C15.6952 48.7887 16.3881 45.186 18.2689 41.7304C18.5164 41.2893 18.8381 40.9217 19.4073 40.9462Z" fill="#4C956C"/>
<path d="M33.5133 50.4552C33.2658 52.8079 32.3254 55.0872 30.4199 56.9253C30.2219 57.1213 29.9992 57.2929 29.7765 57.4399C28.8361 58.0771 28.2174 58.0771 27.7472 57.4399C27.3265 56.8762 27.4255 56.3371 28.2669 55.6263C30.0982 54.0824 31.0881 52.1707 31.2118 49.7935C31.2366 49.2298 31.2861 48.6661 31.9295 48.4456C32.4492 48.274 32.9194 48.372 33.2906 48.7887C33.6123 49.2298 33.5133 49.7445 33.5133 50.4552Z" fill="#4C956C"/>
<path d="M17.9473 60.6014C18.1452 60.3809 18.5165 60.3319 18.5907 59.9887C19.0361 60.1848 19.4321 60.4054 19.7786 60.8955C19.0609 61.1161 18.4917 60.8955 17.9473 60.6014Z" fill="#22684A"/>
<path d="M31.1621 60.0133C31.2611 60.2093 31.3601 60.4299 31.4839 60.6259C31.0632 60.8955 30.6425 61.0181 29.999 60.9691C30.2712 60.3809 30.7414 60.2093 31.1621 60.0133Z" fill="#22684A"/>
<path d="M39.1316 16.6589C39.0321 16.7569 38.9575 16.7324 38.9575 16.5854C38.9575 16.5854 39.0072 16.5609 39.057 16.5609C39.2808 16.5609 38.9575 16.5364 39.1067 16.6834L39.1316 16.6589Z" fill="#22684A"/>
<path d="M25.4207 8.71835C26.3116 10.6055 25.7176 12.4681 25.2474 14.2816C24.505 17.149 22.8222 19.5263 20.8919 21.7075C18.0459 24.918 15.3237 28.1776 13.5914 32.1233C13.4677 32.3929 13.3935 32.7605 12.8738 32.8341C12.3541 31.143 12.7005 29.55 13.3935 27.9815C14.3586 25.8738 15.8682 24.1338 17.3283 22.3447C19.6545 19.5018 22.0798 16.7814 23.6141 13.3748C24.1585 12.174 24.703 10.9976 24.9257 9.69867C24.9505 9.35556 25.0247 8.98794 25.4207 8.71835Z" fill="#4C956C"/>
<path d="M46.0602 38.6669C45.6642 42.098 45.194 45.5781 42.7688 48.4456C42.6698 48.5681 42.5955 48.7396 42.4718 48.8132C42.3481 48.9112 42.1748 48.9602 42.0511 48.9602C41.8531 48.9602 41.8284 48.7642 41.8036 48.5926C41.7541 48.2005 41.8284 47.8329 41.9521 47.4652C42.843 44.7694 43.6349 42.0245 43.6349 39.2061C43.6597 36.4122 43.3875 33.5693 42.1748 30.9225C41.8531 30.2362 41.6056 29.501 41.2839 28.8148C41.1107 28.3981 41.0365 27.9815 41.2344 27.5649C41.5562 26.9032 42.1748 26.7806 42.6945 27.2708C42.9668 27.5159 43.239 27.8345 43.3875 28.1776C44.897 31.4861 45.8127 34.9417 46.0602 38.6669Z" fill="#4C956C"/>
</svg>
