<svg width="53" height="59" viewBox="0 0 53 59" fill="none" xmlns="http://www.w3.org/2000/svg">
<path d="M52.0442 29.2134C52.0442 33.4533 51.9947 37.6686 52.0689 41.9085C52.0937 43.7466 51.376 44.972 49.718 45.8298C42.5412 49.5059 35.513 53.5007 28.4353 57.3975C26.8267 58.2797 25.4161 58.3778 23.8075 57.4955C16.6803 53.5987 9.52833 49.7265 2.37635 45.8543C0.718279 44.972 -0.0241492 43.6976 0.000598097 41.786C0.0500927 33.3798 0.0748401 24.9736 0.000598097 16.5674C-0.0241492 14.4842 0.743018 13.1363 2.59907 12.1315C9.2561 8.60236 15.8389 4.95069 22.4464 1.34804C22.7929 1.17648 23.1393 1.02943 23.4611 0.808863C25.1439 -0.29399 26.8267 -0.244974 28.5343 0.808863C29.7469 1.5441 31.009 2.1813 32.2711 2.84301C38.0125 5.95551 43.7539 9.11702 49.52 12.205C51.2523 13.1363 52.069 14.3862 52.0195 16.3713C51.9452 20.6602 51.9947 24.9491 51.9947 29.2134C52.0195 29.2134 52.0442 29.2134 52.0442 29.2134ZM23.3373 51.3195C23.5848 51.0989 23.5106 50.8294 23.5106 50.5598C23.5106 43.7956 23.4858 37.0069 23.5106 30.2428C23.5106 29.4585 23.1641 29.0909 22.5454 28.7723C17.1258 25.8559 11.7308 22.8904 6.31116 19.974C5.93995 19.7779 5.61824 19.4103 5.0738 19.6064C5.04905 19.8024 4.99956 20.023 4.99956 20.2191C4.99956 26.9832 5.02431 33.7719 4.97482 40.5361C4.97482 41.3938 5.34602 41.7615 6.03895 42.1291C11.4586 45.0455 16.8783 47.9864 22.2979 50.9274C22.6197 51.0989 22.8919 51.4421 23.3373 51.3195ZM44.1498 15.0969C43.9271 14.8519 43.8776 14.7538 43.8034 14.7048C38.1115 11.6168 32.3948 8.55334 26.7029 5.46535C26.1585 5.17126 25.7378 5.22027 25.2181 5.51437C19.7737 8.50432 14.3045 11.4453 8.86014 14.4352C8.56317 14.6068 8.11773 14.6803 8.06823 15.1214C8.14248 15.195 8.21672 15.293 8.31571 15.342C14.0076 18.43 19.7242 21.518 25.3914 24.6305C25.9853 24.9491 26.3812 24.802 26.9009 24.5324C29.0045 23.3806 31.108 22.2287 33.2115 21.0768C36.8246 19.1162 40.4625 17.1311 44.1498 15.0969ZM47.1195 32.8161C47.1195 31.9583 47.1195 31.076 47.1195 30.2183C47.1195 28.4782 47.1442 26.7382 47.1195 25.0226C47.0947 24.1158 46.6493 23.5031 46.0306 23.4541C45.3377 23.3806 44.6448 24.0178 44.521 24.8756C44.4715 25.2922 44.4963 25.7333 44.4963 26.1745C44.4963 30.1938 44.4468 34.1885 44.521 38.2078C44.5458 39.5803 44.1251 40.389 42.863 41.0017C40.0418 42.3987 37.2701 43.9427 34.4984 45.4621C34.0282 45.7317 33.558 46.0258 33.1125 46.3199C32.5681 46.6875 32.5681 47.2512 32.7166 47.7904C32.865 48.3541 33.3352 48.4521 33.8797 48.5011C34.6468 48.5501 35.2408 48.1825 35.8842 47.8394C39.1756 46.0503 42.467 44.2122 45.7832 42.4722C46.7978 41.933 47.169 41.2713 47.1443 40.1684C47.07 37.6932 47.1195 35.2424 47.1195 32.8161Z" fill="#2C6E49"/>
<path d="M23.3373 51.3195C22.9166 51.442 22.6196 51.0989 22.3226 50.9274C16.903 48.0109 11.5081 45.0455 6.06364 42.1291C5.37072 41.7614 4.99951 41.3938 4.99951 40.5361C5.02426 33.7719 5.02425 26.9832 5.02425 20.2191C5.02425 19.9985 5.07376 19.8024 5.09851 19.6064C5.6182 19.4103 5.96466 19.7779 6.33587 19.974C11.7555 22.9149 17.1504 25.8559 22.5701 28.7723C23.1888 29.1154 23.5353 29.4585 23.5353 30.2428C23.5105 37.0069 23.5353 43.7956 23.5353 50.5598C23.5105 50.8293 23.5847 51.0989 23.3373 51.3195Z" fill="#FBFCFB"/>
<path d="M44.1498 15.0969C40.4624 17.1066 36.8246 19.0917 33.1867 21.0768C31.0832 22.2287 28.9797 23.3561 26.8762 24.5324C26.3812 24.802 25.9605 24.9491 25.3666 24.6305C19.6747 21.518 13.9828 18.43 8.29093 15.342C8.19194 15.293 8.14245 15.195 8.04346 15.1214C8.09295 14.6558 8.53841 14.5823 8.83537 14.4352C14.2798 11.4698 19.7489 8.50432 25.1933 5.51436C25.7378 5.22027 26.1337 5.17125 26.6782 5.46535C32.3701 8.55334 38.0867 11.6168 43.7786 14.7048C43.9023 14.7538 43.9518 14.8764 44.1498 15.0969Z" fill="#FBFCFB"/>
<path d="M47.1197 32.8161C47.1197 35.2424 47.0702 37.6932 47.1444 40.1194C47.1692 41.2468 46.798 41.9085 45.7833 42.4232C42.4672 44.1632 39.1758 46.0013 35.8844 47.7904C35.2657 48.1335 34.647 48.4766 33.8798 48.4521C33.3601 48.4276 32.8652 48.3296 32.7167 47.7414C32.5682 47.2022 32.5682 46.6385 33.1127 46.2709C33.5581 45.9523 34.0283 45.6582 34.4985 45.4131C37.2702 43.9181 40.0419 42.3742 42.8631 40.9527C44.1252 40.34 44.5459 39.5312 44.5212 38.1588C44.4222 34.1395 44.4964 30.1447 44.4964 26.1255C44.4964 25.6843 44.4717 25.2432 44.5212 24.8265C44.6449 23.9688 45.3379 23.3316 46.0308 23.4051C46.6495 23.4786 47.1197 24.0668 47.1197 24.9736C47.1444 26.7136 47.1197 28.4292 47.1197 30.1693C47.1197 31.076 47.1197 31.9583 47.1197 32.8161Z" fill="#4C956C"/>
</svg>
