<svg width="22" height="20" viewBox="0 0 22 20" fill="none" xmlns="http://www.w3.org/2000/svg">
<path d="M18.189 13.189C19.1136 12.2712 19.8275 11.3591 20.294 10.705C20.598 10.2787 20.75 10.0655 20.75 9.75C20.75 9.4345 20.598 9.2213 20.294 8.795C18.9279 6.87944 15.4392 2.75 10.75 2.75C9.8422 2.75 8.9794 2.90476 8.16827 3.16827M5.49742 4.49742C3.48118 5.8572 1.99215 7.69266 1.20604 8.795C0.90201 9.2213 0.75 9.4345 0.75 9.75C0.75 10.0655 0.90201 10.2787 1.20604 10.705C2.5721 12.6206 6.06078 16.75 10.75 16.75C12.7408 16.75 14.5151 16.0057 16.0026 15.0026" stroke="#9F9F9F" stroke-width="1.5" stroke-linecap="round" stroke-linejoin="round"/>
<path d="M8.60786 7.75C8.07783 8.28 7.75 9.0123 7.75 9.8211C7.75 11.4387 9.0613 12.75 10.6789 12.75C11.4877 12.75 12.22 12.4222 12.75 11.8921" stroke="#9F9F9F" stroke-width="1.5" stroke-linecap="round"/>
<path d="M1.75 0.75L19.75 18.75" stroke="#9F9F9F" stroke-width="1.5" stroke-linecap="round" stroke-linejoin="round"/>
</svg>
