<svg width="22" height="16" viewBox="0 0 22 16" fill="none" xmlns="http://www.w3.org/2000/svg">
<path d="M20.294 6.795C20.598 7.2213 20.75 7.4345 20.75 7.75C20.75 8.0655 20.598 8.2787 20.294 8.705C18.9279 10.6206 15.4392 14.75 10.75 14.75C6.06078 14.75 2.5721 10.6206 1.20604 8.705C0.90201 8.2787 0.75 8.0655 0.75 7.75C0.75 7.4345 0.90201 7.2213 1.20604 6.795C2.5721 4.8794 6.06078 0.75 10.75 0.75C15.4392 0.75 18.9279 4.8794 20.294 6.795Z" stroke="#9F9F9F" stroke-width="1.5"/>
<path d="M13.75 7.75C13.75 6.0931 12.4069 4.75 10.75 4.75C9.0931 4.75 7.75 6.0931 7.75 7.75C7.75 9.4069 9.0931 10.75 10.75 10.75C12.4069 10.75 13.75 9.4069 13.75 7.75Z" stroke="#9F9F9F" stroke-width="1.5"/>
</svg>
