<svg width="60" height="60" viewBox="0 0 60 60" fill="none" xmlns="http://www.w3.org/2000/svg">
<path d="M31.3837 59.1016C14.803 59.0526 2.25607 48.1466 0.301032 33.6625C-0.886839 24.7662 1.43939 16.8992 7.30451 10.086C10.9176 5.91964 15.5454 3.2728 20.9898 2.36601C25.0236 1.67979 29.0822 1.18963 33.0912 0.331855C39.9462 -1.13862 49.2265 2.29248 53.6562 10.3311C54.9679 12.6838 55.8587 15.1591 56.2052 17.8304C56.4774 19.7666 56.9971 21.6292 57.6406 23.4918C60.239 31.2362 59.4224 38.5886 54.8689 45.4018C51.7507 50.0583 47.5684 53.5629 42.52 56.0872C38.4614 58.1213 34.1554 59.1262 31.3837 59.1016ZM31.2104 54.1756C38.7831 53.8815 45.8361 49.9112 50.9093 42.5343C53.9532 38.1229 55.0421 33.1478 53.8047 27.9522C52.7901 23.6878 51.7754 19.399 50.4886 15.2326C48.2613 7.88027 40.1194 3.44435 32.6705 5.33145C29.6266 6.0912 26.5827 6.60586 23.4893 6.92446C19.9999 7.29208 16.758 8.46846 14.011 10.6742C7.79945 15.6247 4.87926 22.1193 4.97825 30.0108C5.12674 43.3921 16.1888 54.2246 31.2104 54.1756Z" fill="#2C6E49"/>
<path d="M31.2106 54.1756C16.189 54.2246 5.12697 43.3921 4.97849 29.9863C4.8795 22.1193 7.82443 15.6247 14.0113 10.6497C16.7582 8.44395 20.0001 7.26758 23.4895 6.89996C26.6077 6.58136 29.6516 6.06669 32.6707 5.30695C40.1197 3.41985 48.2616 7.83126 50.4888 15.2081C51.7509 19.399 52.7903 23.6633 53.805 27.9277C55.0176 33.1233 53.9287 38.0984 50.9095 42.5098C45.8116 49.9112 38.7586 53.8815 31.2106 54.1756ZM37.5212 29.6432C42.3717 29.6677 46.1828 26.6043 47.0737 21.9723C48.1873 16.2374 44.2277 10.5761 38.2389 9.32623C33.0667 8.24789 28.1173 11.3359 26.9046 16.4335C25.3208 23.0261 30.6167 29.5942 37.5212 29.6432ZM30.5425 50.1318C33.141 50.0583 36.3829 49.225 39.4268 47.632C39.8475 47.4114 40.2929 47.1418 40.6146 46.7987C41.1343 46.2595 41.0601 45.5978 40.6394 45.0096C40.2434 44.495 39.7237 44.2254 39.0556 44.495C38.6101 44.691 38.1646 44.9361 37.7439 45.1567C35.3682 46.3331 32.8935 47.1908 30.2208 47.1663C17.1047 47.0928 9.38354 34.9859 12.9224 24.0309C13.0956 23.4673 13.3431 22.9036 13.4668 22.3399C13.6401 21.5556 13.2441 20.8694 12.5512 20.6489C11.8335 20.4038 11.2396 20.6243 10.8684 21.2616C10.5961 21.7272 10.3734 22.2419 10.2002 22.732C9.23505 25.5259 8.91331 28.4178 9.18553 31.3833C10.1012 41.9462 18.9855 50.0828 30.5425 50.1318Z" fill="#FBFCFB"/>
<path d="M37.5207 29.6432C30.6162 29.5942 25.3203 23.0016 26.9042 16.458C28.1415 11.3604 33.0662 8.2724 38.2384 9.35074C44.2273 10.6006 48.1621 16.2374 47.0732 21.9968C46.1823 26.6288 42.3712 29.6922 37.5207 29.6432ZM37.5455 25.4279C41.3813 25.4279 44.153 21.8988 42.9157 18.3696C41.9753 15.6247 39.5253 13.0269 35.7884 13.272C34.0314 13.3945 31.3834 15.0856 30.9627 17.4628C30.1213 22.1928 34.0066 25.7955 37.5455 25.4279Z" fill="#4C956C"/>
<path d="M30.5422 50.1318C18.9852 50.0828 10.1257 41.9462 9.18527 31.3588C8.91305 28.3933 9.23479 25.5259 10.1999 22.7075C10.3732 22.1928 10.5959 21.7027 10.8681 21.237C11.2393 20.5998 11.858 20.3793 12.5509 20.6243C13.2439 20.8449 13.6398 21.5311 13.4666 22.3154C13.3428 22.9036 13.0954 23.4427 12.9221 24.0064C9.38327 34.9859 17.1292 47.0928 30.2205 47.1418C32.8932 47.1663 35.3679 46.3086 37.7437 45.1322C38.1891 44.9116 38.6099 44.6665 39.0553 44.4705C39.7235 44.1764 40.2432 44.446 40.6391 44.9851C41.0598 45.5733 41.1341 46.2105 40.6144 46.7742C40.2927 47.1173 39.8472 47.3869 39.4265 47.6075C36.3826 49.225 33.1159 50.0583 30.5422 50.1318Z" fill="#4C956C"/>
<path d="M37.5457 25.4279C34.0068 25.7955 30.1215 22.1928 30.9629 17.4628C31.3836 15.0856 34.0315 13.3945 35.7886 13.272C39.5254 13.0269 41.9754 15.6247 42.9158 18.3696C44.1532 21.8987 41.3815 25.4279 37.5457 25.4279Z" fill="#2C6E49"/>
</svg>
