<svg width="57" height="57" viewBox="0 0 57 57" fill="none" xmlns="http://www.w3.org/2000/svg">
<path d="M28.3121 0.0162301C34.0098 0.0162301 39.7223 0.0898445 45.4201 0.00150722C51.7656 -0.101553 56.4917 5.09562 56.5359 10.9848C56.5653 16.1378 56.5506 21.3055 56.5506 26.4585C56.5506 32.7452 56.5506 39.0319 56.5506 45.3332C56.5506 48.1159 55.6819 50.5893 53.871 52.68C51.6773 55.227 48.8947 56.5521 45.4937 56.5521C37.455 56.5521 29.4163 56.5521 21.3776 56.5521C17.9619 56.5521 14.5462 56.5079 11.1305 56.5668C5.06467 56.6551 0.0441695 51.5316 0.0147238 45.613C8.98394e-07 40.8575 0 36.1167 0 31.3612C0 24.6623 0.0147229 17.9634 0 11.2645C0 9.05608 0.515302 6.98015 1.72258 5.12507C3.8574 1.82714 6.87558 0.0456759 10.836 0.0162301C16.6663 0.00150722 22.4818 0.0162301 28.3121 0.0162301ZM36.9986 41.0047C37.455 40.99 37.9261 40.9753 38.3825 40.9311C38.7653 40.8869 38.9273 41.0636 39.0009 41.4317C39.5162 43.9787 39.8254 46.5405 39.6782 49.1465C39.5898 50.7365 39.4279 52.3119 39.1923 53.8872C39.0598 54.7706 39.0745 54.6675 39.899 54.6675C41.7982 54.6675 43.6975 54.6676 45.5967 54.6528C49.2775 54.6381 52.6048 52.3561 53.9741 48.9256C54.5041 47.6153 54.6513 46.2461 54.6513 44.8621C54.6513 40.9311 54.6366 37.0148 54.6366 33.0838C54.6366 25.796 54.6219 18.5082 54.6366 11.2203C54.6366 8.83523 53.9152 6.71514 52.3545 4.91895C50.735 3.04914 48.6738 1.94493 46.1857 1.88604C42.7405 1.81242 39.3101 1.85659 35.8649 1.85659C35.3349 1.85659 35.3349 1.87131 35.2907 2.40134C35.0846 4.50671 34.3779 6.39124 32.9204 7.95186C32.7584 8.12854 32.6259 8.29049 32.6112 8.54078C32.5228 9.74805 33.1117 10.6903 34.2601 11.132C34.6576 11.294 35.0846 11.4265 35.4969 11.5295C36.5127 11.7945 37.5286 12.0448 38.5445 12.3098C39.3395 12.516 40.1198 12.7662 40.8265 13.2079C42.77 14.4152 43.6828 16.2408 43.9183 18.4345C44.1392 20.4958 44.3453 22.5717 44.5073 24.6329C44.6103 25.9579 44.8312 27.283 44.8312 28.6228C44.7134 28.6228 44.6103 28.6375 44.5367 28.7553C44.0361 28.77 43.5208 28.7995 43.0202 28.7406C42.9025 27.3713 42.8583 25.9874 42.6669 24.6182C42.4019 22.6747 42.2841 20.7019 42.1074 18.7585C41.8571 16.1819 40.429 14.7538 38.2648 14.1649C36.7336 13.7527 35.2024 13.3699 33.6859 12.884C32.3462 12.4571 31.4628 11.5737 30.9917 10.2486C30.918 10.0425 30.9033 9.80694 30.7119 9.61555C29.858 9.98362 28.9746 10.2045 28.0324 10.175C27.3845 10.1456 26.7809 9.9689 26.1625 9.76278C25.8386 9.64499 25.6325 9.70388 25.5589 10.1014C25.5 10.4548 25.3528 10.7787 25.1761 11.1026C24.6167 12.0743 23.7186 12.5896 22.7027 12.9576C21.2598 13.4729 19.7581 13.841 18.2711 14.1944C16.1215 14.7097 14.7818 16.2261 14.502 18.1695C14.2812 19.686 14.1192 21.2172 14.0456 22.7336C13.972 24.574 13.5745 26.3849 13.5598 28.2253C13.5598 28.4903 13.4273 28.6522 13.2506 28.7995C12.9414 28.7995 12.647 28.7995 12.3378 28.7995C12.1464 28.6228 11.9108 28.7111 11.69 28.6964C11.69 28.4903 11.6752 28.2842 11.69 28.078C11.793 26.8708 11.9108 25.6782 12.0139 24.4709C12.2053 22.4097 12.3525 20.3338 12.6322 18.2726C13.0297 15.2544 14.7082 13.2668 17.6675 12.4423C18.7717 12.1332 19.9053 11.8681 21.0095 11.559C21.5248 11.4117 22.0549 11.2645 22.5407 11.0584C23.5419 10.602 24.0866 9.51249 23.8805 8.45244C23.8511 8.29049 23.7627 8.1727 23.6597 8.05492C22.1579 6.42068 21.3482 4.50671 21.2304 2.29828C21.2157 2.01854 21.1126 1.87131 20.8181 1.88604C20.6856 1.90076 20.5679 1.88604 20.4354 1.88604C17.2258 1.88604 14.0162 1.90076 10.8066 1.88604C7.55283 1.88604 5.12356 3.38777 3.31265 6.00844C2.28205 7.51017 1.86981 9.23275 1.85508 11.0289C1.84036 14.4152 1.84036 17.8015 1.84036 21.1877C1.84036 29.3736 1.81091 37.5596 1.85508 45.7455C1.88453 50.6482 6.00693 54.6675 10.9097 54.6675C12.8383 54.6675 14.767 54.6675 16.681 54.6675C16.9019 54.6675 17.1374 54.7264 17.373 54.5792C17.3877 53.9756 17.2405 53.3719 17.1374 52.7683C16.5927 49.1023 16.6074 45.451 17.4024 41.8292C17.6086 40.8575 17.3877 40.9458 18.4625 40.9458C18.7717 40.9458 19.0808 40.9605 19.39 40.9753C19.3753 41.3139 19.3753 41.6378 19.287 41.9617C18.8895 43.5518 18.7717 45.186 18.6244 46.8055C18.5067 48.16 18.8158 49.5145 18.7864 50.869C18.7864 50.9132 18.8011 50.9721 18.8158 51.0163C18.9483 51.9733 19.1103 52.9303 19.2281 53.8872C19.3164 54.6528 19.3017 54.6528 20.0526 54.6528C22.2168 54.6528 24.3664 54.6528 26.5306 54.6528C27.252 54.6528 27.2668 54.6381 27.2668 53.9314C27.2668 52.0322 27.2668 50.1329 27.2668 48.2337C27.2668 48.0275 27.252 47.8214 27.2815 47.6153C27.3551 47.2325 27.576 46.9969 27.9735 46.8791C28.3563 46.7614 28.6213 46.9086 28.8863 47.1294C29.1366 47.3356 29.1071 47.63 29.1071 47.9097C29.1071 49.8679 29.1071 51.8113 29.1071 53.7695C29.1071 54.6234 29.1366 54.6528 29.9611 54.6528C31.5217 54.6528 33.097 54.6528 34.6576 54.6528C35.3202 54.6528 35.9974 54.6676 36.66 54.6528C37.1605 54.6381 37.2194 54.5645 37.2636 54.0639C37.2783 53.7842 37.3078 53.5044 37.3519 53.2247C37.5286 52.0322 37.7053 50.8543 37.72 49.647C37.7495 48.3956 37.72 47.1294 37.72 45.878C37.72 45.0535 37.6022 44.2438 37.4403 43.4487C37.3372 42.6537 37.1753 41.8292 36.9986 41.0047ZM28.371 1.87131C27.7526 1.87131 27.1343 1.87131 26.5159 1.87131C25.5442 1.87131 24.5578 1.87131 23.586 1.87131C23.2769 1.87131 23.1002 1.97437 23.1149 2.313C23.1296 2.4455 23.1002 2.57801 23.1296 2.69579C23.483 4.43309 24.0866 6.05261 25.5 7.23044C26.3539 7.93714 27.3551 8.37883 28.474 8.30521C29.5194 8.2316 30.4616 7.81936 31.2419 7.08321C32.5817 5.83177 33.1706 4.21225 33.4504 2.46023C33.524 1.97437 33.4209 1.87131 32.9204 1.87131C31.4039 1.85659 29.8874 1.87131 28.371 1.87131Z" fill="#2B6448"/>
<path d="M44.8459 28.6671C44.8606 27.3273 44.625 26.017 44.522 24.6772C44.36 22.6013 44.1539 20.5401 43.9331 18.4789C43.6975 16.2851 42.7847 14.4448 40.8413 13.2522C40.1346 12.8106 39.3543 12.5603 38.5592 12.3541C37.5433 12.0891 36.5275 11.8388 35.5116 11.5738C35.0846 11.456 34.6724 11.3383 34.2749 11.1763C33.1265 10.7199 32.5523 9.79236 32.6259 8.58508C32.6406 8.3348 32.7731 8.15812 32.9351 7.99617C34.3927 6.43554 35.0994 4.55102 35.3055 2.44564C35.3644 1.91562 35.3644 1.9009 35.8797 1.9009C39.3248 1.9009 42.7552 1.84201 46.2004 1.93034C48.6886 1.98924 50.7498 3.09345 52.3693 4.96326C53.9299 6.75945 54.6513 8.87954 54.6513 11.2646C54.6366 18.5525 54.6513 25.8403 54.6513 33.1281C54.6513 37.0591 54.6661 40.9754 54.6661 44.9064C54.6661 46.3051 54.5188 47.6596 53.9888 48.9699C52.6048 52.4004 49.2922 54.6677 45.6115 54.6971C43.7122 54.7119 41.813 54.6971 39.9137 54.7119C39.0745 54.7119 39.0745 54.8149 39.207 53.9315C39.4426 52.3562 39.6046 50.7809 39.6929 49.1908C39.8401 46.5848 39.5309 44.0231 39.0156 41.476C38.942 41.1079 38.7801 40.946 38.3973 40.9754C37.9409 41.0196 37.4697 41.0196 37.0133 41.049C36.7778 41.0343 36.5569 41.0196 36.3213 41.0196C31.5953 41.0196 26.8693 41.0196 22.1432 41.0196C21.2451 41.0196 20.347 41.0343 19.4489 41.049C19.1398 41.0343 18.8306 41.0196 18.5214 41.0196C17.4466 41.0196 17.6822 40.9312 17.4613 41.903C16.6663 45.5248 16.6369 49.1761 17.1963 52.8421C17.2847 53.4457 17.4466 54.0493 17.4319 54.653C17.1963 54.8002 16.9608 54.7413 16.7399 54.7413C14.8112 54.7413 12.8825 54.7413 10.9686 54.7413C6.06584 54.7266 1.94343 50.722 1.91399 45.8192C1.86982 37.6333 1.89926 29.4474 1.89926 21.2615C1.89926 17.8752 1.89926 14.489 1.91399 11.1027C1.92871 9.29178 2.34095 7.58393 3.37155 6.0822C5.16774 3.47625 7.59702 1.95979 10.8655 1.95979C14.0751 1.95979 17.2847 1.95979 20.4943 1.95979C20.6268 1.95979 20.7445 1.95979 20.8771 1.95979C21.1715 1.94507 21.2746 2.0923 21.2893 2.37203C21.4071 4.58046 22.2168 6.50916 23.7186 8.12868C23.8216 8.24646 23.91 8.34952 23.9394 8.52619C24.1308 9.58624 23.6008 10.6905 22.5996 11.1321C22.1138 11.353 21.5838 11.5002 21.0685 11.6327C19.9495 11.9419 18.8306 12.2069 17.7264 12.5161C14.7523 13.3406 13.0886 15.3282 12.6911 18.3464C12.4261 20.4076 12.2789 22.4835 12.0728 24.5447C11.955 25.752 11.8519 26.9445 11.7489 28.1518C11.7341 28.3579 11.7489 28.564 11.7489 28.7701C11.9255 29.0204 12.1758 28.9027 12.3967 28.8732C12.7059 28.8732 13.0003 28.8732 13.3095 28.8732C14.7082 28.8732 16.1068 28.8732 17.5202 28.9027C17.8883 28.9027 18.0208 28.7554 18.0503 28.4168C18.168 27.4304 18.2858 26.4587 18.4036 25.4722C18.5361 25.5753 18.5214 25.7372 18.5508 25.8845C18.757 26.8415 18.9631 27.7984 19.1545 28.7554C19.2575 28.9763 19.4489 28.9027 19.6256 28.9027C20.2587 28.9027 20.9065 28.8879 21.5396 28.8879C26.0742 28.8879 30.5942 28.8879 35.1288 28.8879C35.5558 28.8879 35.9974 28.9763 36.4244 28.8732C36.5275 28.8732 36.6305 28.8732 36.7189 28.8732C36.9839 28.8879 37.2636 29.0646 37.4697 28.7407C37.6906 27.6807 37.9114 26.6206 38.147 25.5606C38.2795 26.5175 38.4414 27.4745 38.5592 28.4315C38.6034 28.726 38.6917 28.9027 39.0156 28.9027C40.3701 28.8732 41.7099 28.9615 43.0644 28.8585C43.565 28.9321 44.0803 28.9027 44.5809 28.8732C44.6839 28.829 44.8164 28.8732 44.8459 28.6671ZM28.2238 30.1983C26.987 30.1983 25.765 30.1983 24.5283 30.1983C19.4931 30.1983 14.4579 30.1983 9.43738 30.1983C8.27427 30.1983 7.7148 30.7283 7.70008 31.862C7.68536 33.8937 7.68536 35.9107 7.70008 37.9425C7.7148 38.8406 8.30372 39.4148 9.20182 39.459C9.43738 39.4737 9.65822 39.459 9.89378 39.459C22.1727 39.459 34.4368 39.459 46.7157 39.459C46.9513 39.459 47.1721 39.4737 47.4077 39.4442C48.2616 39.3706 48.8211 38.87 48.8358 38.0161C48.8652 35.9107 48.88 33.8054 48.8358 31.7C48.8211 30.743 48.2174 30.213 47.2605 30.1688C47.0838 30.1541 46.9071 30.1688 46.7157 30.1688C40.5468 30.1983 34.3927 30.1983 28.2238 30.1983Z" fill="#FDFDFD"/>
<path d="M36.3947 28.7849C35.9677 28.888 35.5261 28.7996 35.0991 28.7996C30.5644 28.7996 26.0445 28.7996 21.5099 28.7996C20.8768 28.7996 20.229 28.8143 19.5959 28.8143C19.434 28.8143 19.2278 28.888 19.1248 28.6671C19.4634 28.6671 19.7873 28.6671 20.1259 28.6671C20.8326 28.6524 20.921 28.5493 20.8179 27.8574C20.8032 27.7543 20.759 27.666 20.7443 27.5629C20.4646 26.0317 20.1848 24.5005 19.8904 22.9694C19.7579 22.2921 19.6253 21.6149 19.4487 20.9523C19.3014 20.4223 18.9628 20.2604 18.4622 20.3634C18.05 20.4517 17.7261 20.8345 17.7555 21.3204C17.7997 21.821 17.9175 22.3216 17.9911 22.8369C18.1236 23.6908 18.4328 24.5153 18.3739 25.3986C18.2561 26.3851 18.1236 27.3568 18.0206 28.3432C17.9764 28.6671 17.8586 28.8291 17.4905 28.8291C16.0919 28.7996 14.6932 28.8143 13.2798 28.7996C13.4565 28.6524 13.589 28.4904 13.589 28.2254C13.6037 26.3851 14.0012 24.5742 14.0748 22.7338C14.1337 21.2026 14.3104 19.6862 14.5312 18.1697C14.811 16.241 16.1508 14.7098 18.3003 14.1945C19.7873 13.8412 21.289 13.4731 22.7319 12.9578C23.733 12.6045 24.6311 12.0744 25.2053 11.1027C25.382 10.7935 25.5292 10.4549 25.5881 10.1016C25.6617 9.70405 25.8531 9.65988 26.1918 9.76294C26.7954 9.96906 27.399 10.1605 28.0616 10.1752C29.0038 10.2193 29.8872 9.99851 30.7411 9.61571C30.9325 9.80711 30.9472 10.0427 31.0209 10.2488C31.492 11.5739 32.3754 12.4572 33.7151 12.8842C35.2316 13.37 36.7628 13.7528 38.294 14.1651C40.4582 14.754 41.8863 16.1821 42.1366 18.7586C42.328 20.7168 42.4311 22.6749 42.6961 24.6183C42.8875 25.9875 42.9317 27.3715 43.0494 28.7407C41.6949 28.8438 40.3552 28.7555 39.0007 28.7849C38.662 28.7849 38.5737 28.6082 38.5442 28.3138C38.4265 27.3568 38.2792 26.3998 38.132 25.4428C38.1026 24.9569 38.2498 24.4858 38.3381 24.0147C38.4854 23.1902 38.6768 22.3657 38.8387 21.5412C38.9859 20.7904 38.4706 20.2015 37.7787 20.3192C37.3222 20.3929 37.0867 20.702 37.0131 21.1584C36.7628 22.5129 36.5125 23.8675 36.2622 25.222C36.115 26.0317 35.953 26.8268 35.8205 27.6365C35.6586 28.4168 35.7322 28.5493 36.3947 28.7849Z" fill="#539472"/>
<path d="M19.4491 40.99C20.3472 40.9753 21.2453 40.9606 22.1434 40.9606C26.8695 40.9606 31.5955 40.9606 36.3215 40.9606C36.5571 40.9606 36.778 40.99 37.0135 40.99C37.1755 41.8145 37.3522 42.639 37.5141 43.4634C37.6761 44.2732 37.7938 45.0682 37.7938 45.8927C37.7938 47.1442 37.8086 48.4103 37.7938 49.6618C37.7644 50.8691 37.5877 52.0469 37.4258 53.2394C37.3816 53.5192 37.3521 53.7989 37.3374 54.0786C37.2933 54.5792 37.2344 54.6528 36.7338 54.6676C36.0713 54.6823 35.394 54.6676 34.7315 54.6676C33.1709 54.6676 31.5955 54.6676 30.0349 54.6676C29.2104 54.6676 29.1809 54.6381 29.1809 53.7842C29.1809 51.826 29.1809 49.8826 29.1809 47.9245C29.1809 47.6447 29.2104 47.3503 28.9601 47.1442C28.6951 46.9233 28.4448 46.7761 28.0473 46.8939C27.6498 47.0117 27.4289 47.2472 27.3553 47.63C27.3112 47.8214 27.3406 48.0423 27.3406 48.2484C27.3406 50.1476 27.3406 52.0469 27.3406 53.9461C27.3406 54.6528 27.3259 54.6676 26.6044 54.6676C24.4402 54.6676 22.2906 54.6823 20.1264 54.6676C19.3755 54.6676 19.3902 54.6528 19.3019 53.902C19.1841 52.945 19.0369 51.988 18.8897 51.031C18.8897 50.9868 18.8602 50.9279 18.8602 50.8838C18.8897 49.5293 18.5805 48.1748 18.6983 46.8203C18.8455 45.2007 18.9633 43.5665 19.3608 41.9764C19.4344 41.6525 19.4344 41.3286 19.4491 40.99Z" fill="#539472"/>
<path d="M28.3709 1.87136C29.8873 1.87136 31.4038 1.87136 32.9202 1.87136C33.4208 1.87136 33.5239 1.97442 33.4502 2.46028C33.1705 4.2123 32.5816 5.83181 31.2418 7.08326C30.4615 7.8194 29.5192 8.23164 28.4739 8.30526C27.355 8.37887 26.3538 7.93719 25.4999 7.23049C24.0865 6.05266 23.4829 4.43314 23.1295 2.69584C23.1001 2.57806 23.1295 2.44555 23.1148 2.31305C23.0853 1.97442 23.2767 1.87136 23.5859 1.87136C24.5576 1.88608 25.5441 1.87136 26.5158 1.87136C27.1489 1.87136 27.7525 1.87136 28.3709 1.87136Z" fill="#539472"/>
<path d="M12.3524 28.7847C12.1315 28.8142 11.8813 28.9467 11.7046 28.6817C11.9254 28.6964 12.161 28.6081 12.3524 28.7847Z" fill="#539472"/>
<path d="M44.8457 28.667C44.8163 28.8879 44.6838 28.829 44.5513 28.7995C44.6249 28.6817 44.7279 28.667 44.8457 28.667Z" fill="#539472"/>
<path d="M28.2237 30.1982C34.3926 30.1982 40.5467 30.1982 46.7156 30.1982C46.8923 30.1982 47.069 30.1982 47.2604 30.1982C48.2174 30.2424 48.821 30.7724 48.8357 31.7294C48.8652 33.8347 48.8652 35.9401 48.8357 38.0455C48.821 38.8994 48.2763 39.4 47.4076 39.4736C47.172 39.4883 46.9512 39.4883 46.7156 39.4883C34.4368 39.4883 22.1726 39.4883 9.89371 39.4883C9.65814 39.4883 9.43731 39.503 9.20174 39.4883C8.30365 39.4442 7.71473 38.87 7.70001 37.9719C7.68528 35.9401 7.68528 33.9231 7.70001 31.8913C7.71473 30.7577 8.2742 30.2276 9.4373 30.2276C14.4725 30.2276 19.5078 30.2276 24.5283 30.2276C25.765 30.1982 27.0017 30.1982 28.2237 30.1982ZM28.209 37.6332C28.209 37.6185 28.209 37.6185 28.209 37.6332C29.4163 37.6185 30.6235 37.6185 31.8308 37.6185C36.6599 37.6185 41.489 37.6185 46.3034 37.6185C46.9806 37.6185 46.9806 37.6185 46.9954 36.9707C46.9954 35.7193 47.0101 34.4531 46.9954 33.2017C46.9806 31.8913 47.1868 32.0974 45.847 32.068C45.1403 32.0533 45.1697 32.0533 45.1697 32.7305C45.1697 33.3489 45.1992 33.9672 45.1697 34.5709C45.155 35.1892 44.8311 35.5426 44.3305 35.572C43.8005 35.6015 43.4472 35.2187 43.4177 34.5709C43.403 34.3648 43.4177 34.1586 43.4177 33.9525C43.4177 33.4961 43.403 33.025 43.4177 32.5686C43.4324 32.2299 43.3294 32.0385 42.9466 32.068C42.5049 32.0974 42.0779 32.0974 41.6362 32.068C41.2387 32.0385 41.1504 32.2299 41.1798 32.5686C41.1945 32.8189 41.1945 33.0839 41.1798 33.3342C41.1357 33.9672 40.8412 34.2764 40.2965 34.2764C39.737 34.2764 39.4278 33.9525 39.3836 33.3489C39.3689 33.0397 39.3836 32.7305 39.3836 32.4213C39.3836 32.1711 39.2659 32.0533 39.0156 32.0533C38.5592 32.068 38.088 32.068 37.6316 32.0533C37.2341 32.0238 37.1605 32.2299 37.1605 32.5686C37.1752 33.2311 37.1899 33.9084 37.1752 34.5709C37.1605 35.204 36.7777 35.5868 36.2477 35.572C35.7471 35.5573 35.4085 35.1745 35.379 34.5856C35.3643 34.0703 35.379 33.555 35.379 33.0397C35.379 31.8913 35.379 32.068 34.4367 32.068C34.0392 32.068 33.5387 31.8766 33.2589 32.1711C33.0086 32.4213 33.2 32.9072 33.1706 33.29C33.1264 33.9378 32.8614 34.247 32.3314 34.2617C31.7425 34.2764 31.4186 33.9525 31.3597 33.3047C31.3155 32.9072 31.5511 32.4066 31.2272 32.1416C30.918 31.8913 30.4321 32.0827 30.0346 32.068C29.8874 32.0533 29.7254 32.0827 29.5782 32.068C29.2837 32.0533 29.1512 32.1711 29.166 32.4655C29.1807 32.9514 29.166 33.4372 29.166 33.9231C29.166 34.2028 29.1954 34.4973 29.1512 34.7623C29.0924 35.2629 28.7243 35.572 28.2826 35.572C27.8409 35.572 27.4728 35.2481 27.4139 34.7623C27.3845 34.5562 27.3992 34.35 27.3992 34.1439C27.3992 33.5992 27.3992 33.0691 27.4139 32.5244C27.4139 32.2152 27.3256 32.0385 26.9722 32.0533C26.5158 32.068 26.0447 32.068 25.5883 32.0533C25.235 32.0385 25.1466 32.2152 25.1613 32.5244C25.1761 32.8336 25.1761 33.1428 25.1613 33.4519C25.1172 33.9672 24.8227 34.2617 24.3369 34.2764C23.8068 34.2912 23.4829 34.0114 23.4388 33.4519C23.4093 33.1133 23.424 32.7894 23.424 32.4508C23.424 32.2005 23.3357 32.068 23.0707 32.068C22.5848 32.0827 22.099 32.0827 21.6131 32.068C21.3187 32.0533 21.2009 32.1711 21.2009 32.4655C21.2009 32.9514 21.2009 33.4372 21.2009 33.9231C21.2009 34.2028 21.2156 34.4825 21.1862 34.7623C21.142 35.2187 20.8181 35.5279 20.3911 35.5426C19.9642 35.572 19.5814 35.2923 19.4783 34.8653C19.4341 34.6739 19.4489 34.4531 19.4341 34.247C19.4341 33.6581 19.4194 33.0692 19.4341 32.4802C19.4341 32.1563 19.3164 32.0091 18.9777 32.0238C18.5213 32.0385 18.0502 32.0385 17.5938 32.0238C17.2404 32.0091 17.1521 32.1858 17.1668 32.495C17.1815 32.8041 17.1963 33.1133 17.1668 33.4225C17.1226 33.9525 16.8135 34.247 16.3423 34.2617C15.8565 34.2764 15.4737 33.9378 15.4295 33.4225C15.4001 33.1133 15.4148 32.8041 15.4295 32.495C15.4442 32.1711 15.3412 32.0238 15.0026 32.0386C14.5461 32.0533 14.075 32.0533 13.6186 32.0386C13.28 32.0238 13.1622 32.1563 13.1769 32.4802C13.1916 33.1428 13.1916 33.82 13.1769 34.4825C13.1622 35.1745 12.8677 35.5426 12.3377 35.5573C11.7782 35.572 11.4543 35.1745 11.4249 34.4678C11.4102 34.1145 11.4249 33.7464 11.4249 33.3931C11.4396 31.906 11.4249 31.8913 9.95261 32.0386C9.68759 32.068 9.58453 32.1563 9.59925 32.4213C9.59925 32.4655 9.59925 32.5244 9.59925 32.5686C9.59925 34.085 9.61398 35.6015 9.59925 37.1179C9.59925 37.4713 9.68759 37.6627 10.0704 37.6038C10.1734 37.5891 10.2765 37.6038 10.3796 37.6038C16.2834 37.6332 22.2462 37.6332 28.209 37.6332Z" fill="#2B6448"/>
<path d="M36.3951 28.7848C35.7473 28.5493 35.6589 28.4167 35.7915 27.6512C35.9387 26.8414 36.0859 26.0464 36.2331 25.2366C36.4834 23.8821 36.7337 22.5276 36.984 21.1731C37.0723 20.7167 37.2932 20.4075 37.7496 20.3339C38.4416 20.2161 38.9421 20.805 38.8096 21.5559C38.6624 22.3804 38.4563 23.2048 38.3091 24.0293C38.2207 24.5005 38.0735 24.9716 38.1029 25.4574C37.8821 26.5175 37.6613 27.5775 37.4257 28.6376C37.1754 28.6818 36.8957 28.564 36.6748 28.7701C36.6012 28.7848 36.4981 28.7848 36.3951 28.7848Z" fill="#2B6448"/>
<path d="M18.3739 25.3987C18.4328 24.5153 18.1088 23.6908 17.9911 22.8369C17.9174 22.3363 17.7997 21.8357 17.7555 21.3204C17.7113 20.8346 18.0352 20.4518 18.4622 20.3635C18.9775 20.2604 19.3161 20.4224 19.4486 20.9524C19.6253 21.6149 19.7578 22.2922 19.8903 22.9694C20.1848 24.5006 20.4498 26.0318 20.7442 27.5629C20.759 27.666 20.8031 27.7543 20.8179 27.8574C20.9209 28.5641 20.8326 28.6672 20.1259 28.6672C19.7873 28.6672 19.4634 28.6672 19.1247 28.6672C18.9186 27.7102 18.7272 26.7532 18.5211 25.7962C18.4769 25.6637 18.4916 25.5017 18.3739 25.3987Z" fill="#2B6448"/>
<path d="M36.6895 28.7848C36.9103 28.5934 37.19 28.6965 37.4403 28.6523C37.2489 28.9762 36.9545 28.7996 36.6895 28.7848Z" fill="#539472"/>
<path d="M28.2095 37.6332C22.2467 37.6332 16.2986 37.6332 10.3359 37.6332C10.2328 37.6332 10.1298 37.6185 10.0267 37.6332C9.64391 37.6921 9.55557 37.5007 9.55557 37.1474C9.57029 35.6309 9.55557 34.1145 9.55557 32.598C9.55557 32.5539 9.55557 32.495 9.55557 32.4508C9.54085 32.2005 9.64391 32.0974 9.90892 32.068C11.3665 31.9208 11.3812 31.9208 11.3812 33.4225C11.3812 33.7759 11.3665 34.1439 11.3812 34.4973C11.3959 35.204 11.7346 35.6015 12.294 35.5868C12.8241 35.572 13.1185 35.204 13.1332 34.512C13.1479 33.8495 13.1479 33.1722 13.1332 32.5097C13.1332 32.1858 13.251 32.0533 13.5749 32.068C14.0313 32.0827 14.5025 32.0827 14.9589 32.068C15.3122 32.0533 15.4153 32.2152 15.3858 32.5244C15.3711 32.8336 15.3711 33.1428 15.3858 33.4519C15.43 33.9672 15.8128 34.3059 16.2986 34.2912C16.7698 34.2764 17.079 33.982 17.1231 33.4519C17.1526 33.1428 17.1379 32.8336 17.1231 32.5244C17.1084 32.2152 17.1967 32.0386 17.5501 32.0533C18.0065 32.068 18.4776 32.068 18.934 32.0533C19.2727 32.0386 19.3904 32.1858 19.3904 32.5097C19.3757 33.0986 19.3904 33.6875 19.3904 34.2764C19.3904 34.4826 19.3757 34.6887 19.4346 34.8948C19.5377 35.3218 19.9205 35.5868 20.3474 35.572C20.7744 35.5426 21.0983 35.2481 21.1425 34.7917C21.1719 34.512 21.1425 34.2323 21.1572 33.9525C21.1572 33.4667 21.1719 32.9808 21.1572 32.495C21.1572 32.2005 21.275 32.0827 21.5694 32.0974C22.0553 32.1122 22.5411 32.1122 23.027 32.0974C23.292 32.0974 23.3951 32.23 23.3804 32.4802C23.3804 32.8189 23.3656 33.1428 23.3951 33.4814C23.4392 34.0409 23.7632 34.3206 24.2932 34.3059C24.7938 34.2912 25.0882 34.0114 25.1177 33.4814C25.1324 33.1722 25.1324 32.863 25.1177 32.5539C25.1029 32.2447 25.1765 32.068 25.5446 32.0827C26.001 32.0974 26.4722 32.0974 26.9286 32.0827C27.2819 32.068 27.3703 32.2447 27.3703 32.5539C27.3555 33.0986 27.3555 33.6286 27.3555 34.1734C27.3555 34.3795 27.3408 34.5856 27.3703 34.7917C27.4291 35.2776 27.7972 35.6015 28.2389 35.6015C28.6806 35.6015 29.0487 35.2923 29.1075 34.7917C29.137 34.512 29.1223 34.2323 29.1223 33.9525C29.1223 33.4667 29.137 32.9808 29.1223 32.495C29.1223 32.2005 29.2548 32.0827 29.5345 32.0974C29.6817 32.1122 29.8437 32.0827 29.9909 32.0974C30.4032 32.1269 30.889 31.9355 31.1835 32.1711C31.5074 32.4361 31.2865 32.9366 31.316 33.3342C31.3749 33.982 31.6988 34.3059 32.2877 34.2912C32.8324 34.2764 33.0975 33.9525 33.1269 33.3194C33.1563 32.9366 32.9649 32.4655 33.2152 32.2005C33.495 31.906 33.9955 32.0974 34.3931 32.0974C35.3353 32.0974 35.3206 31.906 35.3353 33.0692C35.3353 33.5845 35.3206 34.0998 35.3353 34.6151C35.3501 35.204 35.7034 35.5868 36.204 35.6015C36.734 35.6162 37.1168 35.2334 37.1315 34.6003C37.1462 33.9378 37.1315 33.2606 37.1168 32.598C37.1021 32.2594 37.1904 32.068 37.5879 32.0827C38.0443 32.1122 38.5155 32.0974 38.9719 32.0827C39.2369 32.0827 39.3547 32.1858 39.3399 32.4508C39.3399 32.76 39.3105 33.0692 39.3399 33.3783C39.3841 33.982 39.6933 34.2912 40.2528 34.3059C40.7975 34.3059 41.092 34.0114 41.1361 33.3636C41.1509 33.1133 41.1509 32.8483 41.1361 32.598C41.1214 32.2594 41.195 32.068 41.5926 32.0974C42.0195 32.1269 42.4612 32.1269 42.9029 32.0974C43.3004 32.068 43.3887 32.2594 43.374 32.598C43.3593 33.0544 43.374 33.5256 43.374 33.982C43.374 34.1881 43.374 34.3942 43.374 34.6003C43.4182 35.2481 43.7568 35.6309 44.2868 35.6015C44.7874 35.572 45.1113 35.2187 45.126 34.6003C45.1408 33.982 45.126 33.3636 45.126 32.76C45.126 32.068 45.0819 32.0827 45.8033 32.0974C47.1431 32.1269 46.937 31.906 46.9517 33.2311C46.9664 34.4826 46.9517 35.7487 46.9517 37.0002C46.9517 37.648 46.9517 37.648 46.2597 37.648C41.4306 37.648 36.6015 37.648 31.7871 37.648C30.6093 37.6185 29.402 37.6185 28.2095 37.6332C28.2095 37.6185 28.2095 37.6185 28.2095 37.6332Z" fill="#FDFDFD"/>
</svg>
