<svg width="57" height="57" viewBox="0 0 57 57" fill="none" xmlns="http://www.w3.org/2000/svg">
<path d="M28.2847 0.00368072C34.0413 0.00368072 39.7832 0.00368072 45.5399 0.00368072C46.2908 0.00368072 47.0416 0.00368073 47.763 0.195078C48.6317 0.415921 49.5298 0.592596 50.3396 1.03428C51.1346 1.46125 51.9149 1.88821 52.6069 2.47712C53.3283 3.09549 53.9614 3.80218 54.5209 4.5825C55.949 6.57008 56.5821 8.80796 56.5821 11.2372C56.5821 17.7006 56.5821 24.1786 56.5821 30.642C56.5821 35.5742 56.5968 40.4916 56.5821 45.4238C56.5821 47.6322 56.0226 49.6787 54.7711 51.5338C52.6069 54.7433 49.6181 56.4806 45.746 56.5395C42.1978 56.5984 38.6643 56.5543 35.1161 56.5543C27.1363 56.5543 19.1418 56.4806 11.162 56.569C5.62617 56.6426 0.370104 52.2405 0.0609232 46.0127C-0.0421369 43.9073 0.0167474 41.8019 0.0167474 39.6966C0.0167474 30.3328 0.0314739 20.9543 0.00202813 11.5906C-0.0126948 8.60184 0.797063 5.92228 2.79937 3.65495C4.89002 1.29929 7.49597 0.0331265 10.6467 0.0184036C16.5211 -0.0110422 22.4102 0.00368072 28.2847 0.00368072ZM43.9793 31.172C43.9351 30.0678 43.8762 28.9636 43.7731 27.8741C43.5965 26.0485 43.5376 24.2081 43.3903 22.3677C43.2873 21.1899 43.1548 20.0268 42.8456 18.8931C42.1242 16.1988 40.4458 14.4321 37.6632 13.799C36.8976 13.6223 36.132 13.4162 35.3517 13.2101C34.6597 13.0334 33.9677 12.8568 33.3052 12.5623C32.1715 12.0617 31.3912 11.2225 31.0084 10.0152C30.8465 9.52938 30.8317 9.52938 30.3606 9.69133C30.287 9.72078 30.2281 9.75023 30.1545 9.77967C29.1681 10.1772 28.1816 10.2066 27.1363 9.98579C26.6504 9.88273 26.2088 9.61772 25.6935 9.5441C25.6198 9.75023 25.5315 9.91218 25.502 10.0889C25.3695 11.0017 24.7806 11.5906 24.0887 12.1059C23.4556 12.577 22.7194 12.8126 21.9833 13.0187C20.9232 13.3132 19.8485 13.5487 18.7884 13.8137C16.9922 14.2554 15.5641 15.2271 14.6218 16.8467C13.7532 18.3484 13.4882 20.0121 13.2821 21.6905C13.179 22.6033 13.1643 23.5308 13.0907 24.4437C12.9876 25.9012 12.8404 27.3441 12.8109 28.8016C12.7962 29.4642 12.6048 30.112 12.649 30.7892C12.6637 30.9217 12.5606 31.0248 12.4576 31.1131C12.0012 31.0101 11.6037 30.7745 11.1767 30.5978C10.897 30.4948 10.7939 30.3181 10.8086 30.0089C10.8381 29.6703 10.9117 29.3169 10.8086 28.9341C10.3964 29.0666 10.0725 29.258 9.79274 29.5231C9.248 30.0531 9.23327 30.5537 9.71913 31.1426C10.0578 31.5401 10.47 31.8345 10.9559 32.0407C11.6184 32.3204 12.2809 32.6001 12.9434 32.8504C17.6989 34.6172 22.6017 35.5742 27.6663 35.6772C31.9507 35.7655 36.1467 35.0736 40.2691 33.9105C41.9917 33.4246 43.6848 32.8357 45.3338 32.129C45.9521 31.864 46.5263 31.5401 46.9238 30.9659C47.1594 30.6273 47.2772 30.2739 47.0122 29.9058C46.6736 29.4494 46.2613 29.1108 45.6724 28.993C45.6282 30.4211 45.6429 30.4506 45.4368 30.5389C44.9804 30.8039 44.524 31.0837 43.9793 31.172ZM39.6213 45.0851C40.2102 44.8201 40.8286 44.7023 41.4911 44.5551C41.7708 48.0003 41.0789 51.2982 40.3869 54.6403C42.3009 54.6403 44.097 54.6697 45.8932 54.6403C47.763 54.6108 49.4709 54.0366 50.9726 52.8883C53.5197 50.9448 54.727 48.3389 54.727 45.1587C54.727 33.8074 54.727 22.4708 54.7122 11.1195C54.7122 8.96991 54.0497 7.01177 52.7394 5.31864C51.0168 3.11021 48.7495 1.88821 45.9227 1.84404C42.61 1.79987 39.2974 1.82932 35.9847 1.82932C35.3811 1.82932 35.3664 1.82932 35.3075 2.43296C35.0719 4.56777 34.3799 6.49647 32.834 8.0571C32.7457 8.14543 32.6868 8.24849 32.6574 8.381C32.5102 9.32326 33.0107 10.3097 33.8646 10.7808C34.2769 11.0017 34.7186 11.1489 35.1603 11.252C36.132 11.5022 37.1037 11.7378 38.0754 11.9734C39.5918 12.3415 40.9758 12.9893 42.1242 14.0788C43.7437 15.5805 44.524 17.5092 44.8921 19.6146C45.2454 21.5874 45.3779 23.5897 45.4515 25.592C45.481 26.4754 45.6577 27.0791 46.5852 27.2704C46.6883 27.2852 46.7619 27.3588 46.865 27.403C48.3225 28.1244 49.0587 29.258 49.0292 30.907C48.9998 33.0124 49.0145 35.1177 49.0292 37.2231C49.0439 39.0635 48.2194 40.3591 46.541 41.11C44.8479 41.8608 43.1106 42.4497 41.3439 43.0092C36.7503 44.4373 32.0537 45.1146 27.2394 45.0115C22.8667 44.9232 18.6265 44.1281 14.4746 42.7884C12.9876 42.3025 11.5153 41.7725 10.0872 41.1394C8.39407 40.3885 7.52542 39.0929 7.54014 37.2084C7.56959 35.0588 7.56958 32.8946 7.52541 30.745C7.49597 29.3169 8.1585 28.3599 9.32161 27.668C9.73385 27.4177 10.1755 27.1968 10.6319 27.0202C10.9853 26.8877 11.0884 26.6815 11.1031 26.3282C11.1473 25.2976 11.2209 24.2817 11.2945 23.2511C11.4123 21.5285 11.5448 19.8207 12.0453 18.157C12.8698 15.3744 14.5924 13.4015 17.3161 12.3415C18.1553 12.0175 19.0534 11.885 19.9221 11.6789C20.8202 11.4728 21.733 11.3256 22.5722 10.8986C23.4997 10.4275 23.8825 9.66189 23.8973 8.64601C23.8973 8.36628 23.8236 8.16016 23.6322 7.95403C22.1747 6.39341 21.3944 4.55305 21.2324 2.43296C21.1882 1.85876 21.1735 1.84404 20.5993 1.84404C17.1836 1.84404 13.7679 1.78515 10.3522 1.85876C6.78927 1.9471 4.46306 4.03775 2.66687 6.89399C2.26935 8.26322 1.84239 9.61772 1.84239 11.09C1.87183 22.4119 1.85711 33.7338 1.85711 45.0557C1.85711 45.7477 1.88656 46.4396 2.01906 47.1316C2.96133 52.1521 7.24568 54.6844 10.7203 54.655C12.3398 54.6403 13.9593 54.655 15.5788 54.655C15.7702 54.655 15.9911 54.7286 16.1972 54.5372C15.5347 51.2835 14.828 48.015 15.1224 44.5993C15.8291 44.7171 16.418 44.879 16.9775 45.1146C16.9775 46.3366 16.9481 47.5586 17.0806 48.7953C17.272 50.5768 17.6253 52.3141 18.0081 54.0661C18.1406 54.6697 18.1701 54.6697 18.7737 54.6697C21.3944 54.6697 24.0003 54.6697 26.621 54.6697C27.2835 54.6697 27.2835 54.655 27.2835 53.963C27.2835 52.7558 27.2983 51.5485 27.2835 50.3412C27.2835 50.0026 27.3277 49.6787 27.5485 49.3989C27.7547 49.1634 27.9902 48.972 28.3436 49.0456C28.7264 49.1192 29.0061 49.34 29.0797 49.7228C29.1239 49.9142 29.1239 50.1351 29.1239 50.3412C29.1239 51.5485 29.1239 52.7558 29.1386 53.963C29.1386 54.5814 29.2122 54.655 29.7717 54.6697C32.466 54.6845 35.1603 54.6697 37.8545 54.6845C38.2815 54.6845 38.4435 54.4931 38.5171 54.1103C38.6937 53.2122 38.8999 52.3141 39.0765 51.416C39.5477 49.3253 39.7832 47.22 39.6213 45.0851ZM17.0953 36.1925C16.9628 36.6048 17.0806 37.0023 17.0217 37.3703C16.9775 37.6942 16.8303 37.9593 16.4917 38.0476C16.153 38.1359 15.8291 38.1065 15.5641 37.8268C15.358 37.6059 15.2991 37.3409 15.2991 37.0464C15.2991 36.6931 15.3138 36.325 15.3138 35.9717C15.3138 35.8244 15.3433 35.633 15.1519 35.5889C14.4452 35.3828 13.7826 35.0589 12.9876 34.9558C12.9876 35.7067 13.017 36.3986 12.9729 37.0906C12.9582 37.5912 12.6048 37.9004 12.1337 37.9151C11.6478 37.9298 11.3092 37.6501 11.2356 37.1495C11.2061 36.9287 11.2061 36.6931 11.2061 36.4575C11.2061 35.8392 11.2061 35.2208 11.2061 34.6024C11.2061 34.3963 11.1914 34.1902 10.9706 34.0871C10.47 33.8663 9.95469 33.6455 9.42467 33.4246C9.42467 34.8969 9.40994 36.3103 9.43939 37.7237C9.45411 38.2537 9.7633 38.6954 10.1608 39.034C10.4258 39.2549 10.7203 39.3874 11.0295 39.5199C13.9152 40.7566 16.8892 41.7136 19.9662 42.3172C23.0728 42.9209 26.2088 43.2742 29.3742 43.1564C33.4819 43.0092 37.4717 42.3025 41.388 41.0658C42.8309 40.6094 44.2443 40.0646 45.6429 39.4904C46.7177 39.0488 47.233 38.2832 47.1889 37.1053C47.1447 36.0747 47.1889 35.0589 47.1889 34.0283C47.1889 33.8369 47.233 33.6307 47.1447 33.4541C46.8797 33.4393 46.7177 33.6013 46.541 33.6749C46.3496 33.7485 46.173 33.8516 45.9816 33.9252C45.3779 34.1755 45.3779 34.1755 45.3779 34.8675C45.3779 35.6183 45.3927 36.3545 45.3632 37.1053C45.3485 37.5912 45.0393 37.8709 44.5976 37.9151C44.1412 37.9593 43.7142 37.6942 43.6112 37.2378C43.5523 36.9728 43.567 36.6784 43.5523 36.3986C43.5376 35.9275 43.5229 35.4564 43.5081 34.9411C42.8603 35.1325 42.3303 35.2944 41.7856 35.4564C41.2408 35.6183 41.2408 35.6183 41.2703 36.2072C41.285 36.6489 41.3439 37.0759 41.2261 37.5028C41.0936 37.9445 40.8286 38.1359 40.3722 38.1212C39.8568 38.1065 39.5771 37.812 39.5035 37.2231C39.4593 36.8845 39.5771 36.5164 39.4004 36.1631C38.8851 36.2809 38.414 36.3839 37.9429 36.487C37.2362 36.6489 37.2362 36.6489 37.2362 37.3851C37.2362 38.077 37.2656 38.769 37.2215 39.461C37.192 39.9321 36.8534 40.2266 36.4264 40.2413C35.9553 40.2708 35.5872 39.9763 35.5136 39.4904C35.4842 39.2843 35.4842 39.0782 35.4842 38.8721C35.4842 38.2537 35.4842 37.6501 35.4842 37.0317C35.013 36.9434 34.645 37.1053 34.2622 37.1495C33.2168 37.2967 33.2316 37.3115 33.2021 38.3273C33.2021 38.4746 33.2021 38.6365 33.1874 38.7837C33.1285 39.3285 32.7752 39.6524 32.2893 39.6377C31.8182 39.6229 31.509 39.3138 31.4648 38.7985C31.4354 38.4893 31.4501 38.1801 31.4501 37.8709C31.4648 37.5765 31.347 37.444 31.0379 37.4734C30.5815 37.5176 30.1103 37.547 29.6539 37.547C29.2858 37.547 29.168 37.6943 29.168 38.0623C29.1828 38.7837 29.1975 39.5052 29.168 40.2119C29.1533 40.7861 28.8147 41.11 28.3288 41.11C27.7988 41.1247 27.4455 40.8008 27.416 40.1971C27.3866 39.6818 27.4013 39.1665 27.4013 38.6512C27.4013 37.5765 27.4013 37.5765 26.3707 37.5176C26.1646 37.5028 25.9585 37.4881 25.7523 37.4587C25.1487 37.4145 25.1487 37.4145 25.134 37.9887C25.134 38.239 25.1487 38.504 25.1193 38.7543C25.0751 39.2843 24.7659 39.5935 24.3095 39.6082C23.8089 39.6229 23.4556 39.3138 23.4114 38.769C23.382 38.3862 23.3967 38.0034 23.382 37.6206C23.382 37.3703 23.2789 37.2526 23.0286 37.2231C22.425 37.1495 21.8213 37.0464 21.2177 36.9728C21.0557 37.2378 21.1294 37.5029 21.1294 37.7531C21.1146 38.2684 21.1588 38.7837 21.1146 39.299C21.0557 39.991 20.5699 40.3444 19.9515 40.1677C19.554 40.0499 19.3184 39.7407 19.3037 39.2254C19.289 38.504 19.3037 37.7826 19.3037 37.0759C19.3037 36.8845 19.3626 36.6342 19.0976 36.5606C18.4498 36.4575 17.7873 36.222 17.0953 36.1925ZM28.3288 1.84404C26.8418 1.84404 25.3548 1.84404 23.8678 1.84404C23.1611 1.84404 23.1317 1.88821 23.1758 2.59491C23.22 3.24271 23.4261 3.86107 23.6617 4.44999C24.2359 5.86339 25.0751 7.07066 26.459 7.79208C27.1216 8.14543 27.843 8.39572 28.5938 8.29266C29.6539 8.14543 30.6256 7.74791 31.3912 6.95288C32.6279 5.70143 33.2463 4.15553 33.4819 2.44768C33.5555 1.96182 33.4524 1.85876 32.9518 1.85876C31.4059 1.82932 29.8748 1.84404 28.3288 1.84404Z" fill="#2B6448"/>
<path d="M17.0218 45.1146C16.4476 44.8937 15.8587 44.717 15.1668 44.5993C14.8723 48.0002 15.579 51.2834 16.2415 54.5372C16.0354 54.7286 15.8146 54.655 15.6232 54.655C14.0036 54.655 12.3841 54.6403 10.7646 54.655C7.29001 54.6844 3.00566 52.1521 2.0634 47.1316C1.93089 46.4543 1.90145 45.7624 1.90145 45.0557C1.90145 33.7338 1.91616 22.4119 1.88672 11.09C1.88672 9.6177 2.29896 8.26319 2.71121 6.89397C4.5074 4.03773 6.8336 1.94708 10.3965 1.85874C13.8122 1.78513 17.228 1.84402 20.6437 1.84402C21.2178 1.84402 21.2326 1.85874 21.2767 2.43293C21.4387 4.55303 22.219 6.40811 23.6766 7.95401C23.868 8.16013 23.9416 8.36625 23.9416 8.64599C23.9269 9.66187 23.5441 10.4275 22.6165 10.8986C21.7773 11.3256 20.8645 11.4581 19.9664 11.6789C19.0978 11.885 18.1997 12.0175 17.3605 12.3414C14.622 13.3868 12.9142 15.3743 12.0897 18.157C11.5891 19.8207 11.4713 21.5285 11.3388 23.2511C11.2652 24.2817 11.1916 25.2976 11.1474 26.3282C11.1327 26.6668 11.0296 26.8876 10.6763 27.0201C10.2199 27.1968 9.77818 27.4177 9.36594 27.6679C8.20283 28.3599 7.54031 29.3316 7.56975 30.745C7.61392 32.8946 7.5992 35.0588 7.58447 37.2084C7.56975 39.0929 8.4384 40.3885 10.1315 41.1394C11.5596 41.7725 13.0319 42.3025 14.5189 42.7883C18.6708 44.1428 22.911 44.9232 27.2837 45.0115C32.0981 45.1146 36.7947 44.4373 41.3882 43.0092C43.1549 42.4644 44.8922 41.8608 46.5854 41.1099C48.2638 40.3591 49.0883 39.0634 49.0735 37.2231C49.0588 35.1177 49.0441 33.0123 49.0735 30.907C49.103 29.258 48.3668 28.1244 46.9093 27.4029C46.8209 27.3588 46.7326 27.2851 46.6295 27.2704C45.702 27.079 45.5253 26.4754 45.4959 25.592C45.4223 23.5897 45.275 21.5874 44.9364 19.6145C44.5536 17.4944 43.7733 15.5805 42.1685 14.0787C41.0054 13.004 39.6362 12.3562 38.1197 11.9734C37.148 11.7378 36.1763 11.5022 35.2046 11.2519C34.7629 11.1342 34.3212 11.0016 33.909 10.7808C33.0551 10.3244 32.5545 9.32324 32.7017 8.38098C32.7164 8.24847 32.7753 8.14541 32.8784 8.05707C34.4243 6.49645 35.1015 4.56775 35.3518 2.43293C35.4254 1.8293 35.4254 1.8293 36.0291 1.8293C39.3417 1.8293 42.6544 1.81457 45.967 1.84402C48.7938 1.87346 51.0759 3.11019 52.7837 5.31862C54.094 7.01175 54.7566 8.95517 54.7566 11.1194C54.7566 22.4708 54.7713 33.8074 54.7713 45.1587C54.7713 48.3389 53.564 50.9448 51.017 52.8882C49.5152 54.0219 47.8074 54.6108 45.9376 54.6403C44.1414 54.6697 42.3452 54.6403 40.4312 54.6403C41.1232 51.2982 41.8152 48.0002 41.5354 44.5551C40.8729 44.7023 40.2545 44.8201 39.6656 45.0851C39.4595 45.1146 39.2534 45.1293 39.062 45.1882C36.7505 45.7771 34.3948 46.1599 32.0097 46.3513C29.5805 46.5427 27.1365 46.5721 24.7072 46.3513C22.4546 46.1599 20.2167 45.8949 18.0377 45.3059C17.6696 45.2176 17.3605 45.0557 17.0218 45.1146Z" fill="#FDFDFD"/>
<path d="M12.4722 31.1573C12.5752 31.069 12.6636 30.9807 12.6636 30.8334C12.6194 30.1562 12.8108 29.5084 12.8255 28.8459C12.8697 27.3883 13.0022 25.9454 13.1052 24.4879C13.1641 23.5751 13.1789 22.6475 13.2966 21.7347C13.5028 20.0563 13.7678 18.3779 14.6364 16.8909C15.5787 15.2714 17.0068 14.2997 18.803 13.858C19.863 13.593 20.9378 13.3574 21.9979 13.0629C22.734 12.8568 23.4701 12.6212 24.1032 12.1501C24.7952 11.6348 25.3841 11.0459 25.5166 10.1331C25.5461 9.9564 25.6344 9.79445 25.708 9.58833C26.2086 9.66195 26.6503 9.92696 27.1509 10.03C28.1815 10.2509 29.1826 10.2214 30.1691 9.8239C30.2427 9.79445 30.3016 9.75028 30.3752 9.73556C30.8463 9.57361 30.8758 9.55889 31.023 10.0595C31.4058 11.252 32.1861 12.0912 33.3198 12.6065C33.9676 12.901 34.6743 13.0777 35.3662 13.2543C36.1318 13.4604 36.8974 13.6666 37.6777 13.8432C40.4604 14.4763 42.1388 16.2284 42.8602 18.9374C43.1694 20.071 43.3019 21.2341 43.4049 22.412C43.5522 24.2376 43.6111 26.078 43.7877 27.9183C43.8908 29.0078 43.9497 30.112 43.9939 31.2162C42.9044 31.7168 41.7412 32.0554 40.5929 32.3793C40.5929 32.2027 40.6076 32.0113 40.5781 31.8346C40.3278 30.274 39.9892 28.7134 39.4592 27.2263C38.8556 25.489 38.7378 23.737 39.1647 21.9555C39.2531 21.5728 39.2678 21.19 39.0617 20.8366C38.7672 20.3066 38.1341 20.2035 37.6925 20.6158C37.5158 20.7924 37.4569 21.028 37.4127 21.2341C37.2066 22.1617 37.0888 23.1039 37.0741 24.0462C37.0447 25.5185 37.4569 26.9172 37.8839 28.3158C38.3403 29.8176 38.7672 31.3046 38.7672 32.8946C38.7231 32.9241 38.6936 32.9683 38.6494 32.983C35.9846 33.6455 33.2903 34.1166 30.5371 34.2639C27.9459 34.3964 25.3547 34.2933 22.7782 33.94C21.085 33.7044 19.3919 33.4099 17.743 32.9094C17.9344 32.7769 17.9491 32.5707 17.9491 32.3646C17.9344 31.6432 18.0963 30.9365 18.273 30.2445C18.5527 29.1256 18.8766 28.0214 19.2005 26.9172C19.6569 25.3124 19.7305 23.7076 19.4214 22.0733C19.3478 21.6905 19.2889 21.3225 19.1563 20.9544C18.9944 20.4538 18.7736 20.3213 18.3024 20.3802C17.8902 20.4244 17.5368 20.763 17.5074 21.19C17.4779 21.5433 17.5074 21.8967 17.581 22.2647C17.8019 23.5456 17.9343 24.8412 17.5368 26.1368C16.9037 28.1833 16.359 30.2593 16.0351 32.3941C14.7837 32.0407 13.6206 31.6285 12.4722 31.1573Z" fill="#539472"/>
<path d="M17.0216 45.1144C17.3602 45.0702 17.6841 45.2175 17.9933 45.3058C20.187 45.8947 22.4249 46.1597 24.6627 46.3511C27.092 46.5572 29.536 46.5425 31.9653 46.3511C34.3504 46.1597 36.6913 45.7916 39.0176 45.188C39.209 45.1438 39.4151 45.1291 39.6212 45.0849C39.7831 47.2198 39.5476 49.3251 39.1353 51.4011C38.9587 52.2992 38.7525 53.1973 38.5759 54.0953C38.5023 54.4781 38.3403 54.6695 37.9133 54.6695C35.219 54.6548 32.5248 54.6695 29.8305 54.6548C29.2563 54.6548 29.1974 54.5812 29.1974 53.9481C29.1827 52.7408 29.1974 51.5336 29.1827 50.3263C29.1827 50.1202 29.1827 49.914 29.1385 49.7079C29.0502 49.3104 28.7852 49.1043 28.4024 49.0307C28.049 48.9571 27.8134 49.1485 27.6073 49.384C27.3718 49.649 27.3276 49.9729 27.3423 50.3263C27.3423 51.5336 27.3423 52.7408 27.3423 53.9481C27.3423 54.6401 27.3276 54.6548 26.6798 54.6548C24.0591 54.6548 21.4532 54.6548 18.8325 54.6548C18.2289 54.6548 18.1994 54.6401 18.0669 54.0512C17.6841 52.3139 17.3308 50.5619 17.1394 48.7804C16.9921 47.5584 17.0068 46.3364 17.0216 45.1144Z" fill="#539472"/>
<path d="M17.0951 36.1926C17.7871 36.2073 18.4349 36.4576 19.1122 36.6048C19.3919 36.6637 19.3183 36.914 19.3183 37.1201C19.3183 37.8415 19.3035 38.563 19.3183 39.2697C19.333 39.785 19.5686 40.0941 19.9661 40.2119C20.5844 40.3886 21.0703 40.0352 21.1292 39.3433C21.1734 38.828 21.1292 38.3127 21.1439 37.7974C21.1439 37.5471 21.085 37.2821 21.2322 37.0171C21.8212 37.1054 22.4248 37.2085 23.0432 37.2673C23.3082 37.2968 23.3965 37.4146 23.3965 37.6649C23.3965 38.0477 23.3818 38.4304 23.426 38.8132C23.4701 39.358 23.8382 39.6672 24.324 39.6524C24.7805 39.6377 25.0896 39.3285 25.1338 38.7985C25.1633 38.5482 25.1338 38.2832 25.1485 38.0329C25.1633 37.4587 25.1633 37.4587 25.7669 37.5029C25.973 37.5176 26.1791 37.5471 26.3853 37.5618C27.4159 37.6207 27.4159 37.6207 27.4159 38.6955C27.4159 39.2108 27.4011 39.7261 27.4306 40.2414C27.46 40.845 27.8134 41.1689 28.3434 41.1542C28.844 41.1395 29.1679 40.8156 29.1826 40.2561C29.212 39.5347 29.1973 38.8132 29.1826 38.1065C29.1679 37.7532 29.2857 37.5912 29.6685 37.5912C30.1249 37.5912 30.596 37.5618 31.0524 37.5176C31.3616 37.4882 31.4794 37.6207 31.4646 37.9152C31.4499 38.2243 31.4499 38.5335 31.4794 38.8427C31.5236 39.358 31.8475 39.6672 32.3039 39.6819C32.7897 39.6966 33.1431 39.3727 33.202 38.828C33.2167 38.6807 33.2167 38.5188 33.2167 38.3716C33.2314 37.3557 33.2314 37.3262 34.2767 37.1937C34.6448 37.1348 35.0129 36.9876 35.4987 37.0759C35.4987 37.6943 35.4987 38.2979 35.4987 38.9163C35.4987 39.1224 35.4987 39.3285 35.5282 39.5347C35.6165 40.0205 35.9699 40.315 36.441 40.2855C36.8827 40.2708 37.2213 39.9764 37.236 39.5052C37.2802 38.8132 37.2507 38.1213 37.2507 37.4293C37.2507 36.6932 37.2507 36.6932 37.9574 36.5312C38.4286 36.4281 38.8997 36.3104 39.415 36.2073C39.5917 36.5754 39.4739 36.9287 39.5181 37.2673C39.5917 37.8415 39.8714 38.1507 40.3867 38.1654C40.8284 38.1802 41.1081 37.974 41.2406 37.5471C41.3584 37.1201 41.2995 36.6784 41.2848 36.2515C41.2554 35.6625 41.2701 35.6626 41.8001 35.5006C42.3449 35.3386 42.8749 35.1767 43.5227 34.9853C43.5374 35.5153 43.5521 35.9717 43.5669 36.4429C43.5816 36.7226 43.5669 37.0171 43.6258 37.2821C43.7288 37.7385 44.1558 38.0035 44.6122 37.9593C45.0686 37.9152 45.363 37.6354 45.3778 37.1496C45.4072 36.4134 45.3925 35.6626 45.3925 34.9117C45.3925 34.2197 45.3925 34.2197 45.9961 33.9694C46.1875 33.8958 46.3642 33.7927 46.5556 33.7191C46.7323 33.6455 46.8942 33.4836 47.1592 33.4983C47.2476 33.675 47.2034 33.8811 47.2034 34.0725C47.2034 35.1031 47.174 36.1337 47.2034 37.1496C47.2476 38.3274 46.7323 39.093 45.6575 39.5347C44.2588 40.1089 42.8454 40.6536 41.4026 41.11C37.4863 42.3467 33.4817 43.0534 29.3887 43.2007C26.2086 43.3184 23.0873 42.9504 19.9808 42.3615C16.9037 41.7725 13.9297 40.8156 11.044 39.5641C10.7348 39.4316 10.4404 39.2844 10.1754 39.0783C9.76313 38.7396 9.45395 38.3127 9.45395 37.7679C9.42451 36.3545 9.43922 34.9559 9.43922 33.4688C9.96925 33.7044 10.4845 33.9105 10.9851 34.1314C11.2207 34.2344 11.2207 34.4406 11.2207 34.6467C11.2207 35.265 11.2207 35.8834 11.2207 36.5018C11.2207 36.7373 11.2207 36.9729 11.2501 37.1937C11.3238 37.6943 11.6624 37.974 12.1482 37.9593C12.6194 37.9446 12.9727 37.6354 12.9874 37.1348C13.0169 36.4429 13.0022 35.7509 13.0022 35C13.7972 35.1031 14.4597 35.427 15.1664 35.6331C15.3578 35.692 15.3284 35.8834 15.3284 36.0159C15.3284 36.3692 15.3284 36.7373 15.3137 37.0907C15.3137 37.3851 15.3725 37.6501 15.5787 37.871C15.829 38.136 16.1529 38.1802 16.5062 38.0918C16.8448 38.0035 16.9921 37.7385 17.0362 37.4146C17.0804 37.0023 16.9773 36.6048 17.0951 36.1926Z" fill="#FDFDFD"/>
<path d="M12.472 31.1573C13.6204 31.6284 14.7835 32.0554 15.9908 32.3204C16.5061 32.6738 17.1392 32.7032 17.7134 32.8504C19.3624 33.351 21.0408 33.6455 22.7486 33.8811C25.3251 34.2344 27.9016 34.3375 30.5076 34.205C33.2607 34.0577 35.955 33.6013 38.6199 32.9241C38.664 32.9093 38.7082 32.8652 38.7377 32.8357C39.3707 32.7768 39.9891 32.6149 40.5633 32.3351C41.7264 32.0112 42.8748 31.6726 43.9643 31.172C44.509 31.0837 44.9654 30.7892 45.4513 30.5684C45.6574 30.4801 45.6427 30.4506 45.6869 29.0225C46.2758 29.1403 46.688 29.4789 47.0266 29.9353C47.2917 30.3034 47.1739 30.6567 46.9383 30.9954C46.5408 31.5696 45.9519 31.8935 45.3482 32.1585C43.6993 32.8652 42.0061 33.4541 40.2836 33.9399C36.1611 35.103 31.9799 35.795 27.6808 35.7067C22.6161 35.6036 17.6987 34.6466 12.9579 32.8799C12.2806 32.6296 11.6328 32.3499 10.9703 32.0701C10.4845 31.864 10.0722 31.5696 9.73358 31.172C9.23301 30.5831 9.26245 30.0825 9.8072 29.5525C10.0869 29.2875 10.3961 29.0814 10.8231 28.9636C10.9261 29.3464 10.8525 29.6998 10.8231 30.0384C10.7936 30.3476 10.9114 30.5242 11.1912 30.6273C11.6181 30.8187 12.0304 31.0395 12.472 31.1573Z" fill="#FDFDFD"/>
<path d="M28.3288 1.8439C29.8747 1.8439 31.4059 1.8439 32.9518 1.8439C33.4524 1.8439 33.5554 1.94696 33.4818 2.43282C33.2315 4.14067 32.6131 5.68657 31.3911 6.93802C30.6256 7.71833 29.6538 8.13057 28.5938 8.2778C27.8429 8.38086 27.1215 8.13057 26.459 7.77722C25.075 7.0558 24.2211 5.84852 23.6616 4.43513C23.4261 3.84621 23.22 3.22785 23.1758 2.58004C23.1316 1.87335 23.1611 1.82918 23.8678 1.82918C25.3548 1.8439 26.8418 1.8439 28.3288 1.8439Z" fill="#539472"/>
<path d="M17.7138 32.8504C17.1249 32.6884 16.5065 32.659 15.9912 32.3203C16.3151 30.2003 16.8451 28.1096 17.493 26.0631C17.8905 24.7675 17.7727 23.4866 17.5371 22.191C17.4782 21.8377 17.4488 21.4843 17.4635 21.1162C17.4929 20.6893 17.8463 20.3506 18.2585 20.3065C18.7297 20.2476 18.9505 20.3801 19.1125 20.8807C19.2303 21.2487 19.3039 21.6168 19.3775 21.9996C19.6867 23.6338 19.6278 25.2386 19.1566 26.8434C18.8327 27.9477 18.5236 29.0519 18.2291 30.1708C18.0524 30.8628 17.9052 31.5695 17.9052 32.2909C17.9199 32.5117 17.9052 32.7179 17.7138 32.8504Z" fill="#2B6448"/>
<path d="M40.5784 32.335C40.0042 32.6147 39.3858 32.7767 38.7527 32.8356C38.7527 31.2602 38.3258 29.7585 37.8694 28.2568C37.4424 26.8581 37.0301 25.4594 37.0596 23.9871C37.0743 23.0449 37.1921 22.1026 37.3982 21.175C37.4424 20.9542 37.4866 20.7186 37.678 20.5567C38.1049 20.1592 38.7527 20.2622 39.0472 20.7775C39.2533 21.1309 39.2386 21.5284 39.1503 21.8965C38.738 23.6927 38.8411 25.43 39.4447 27.1673C39.9747 28.669 40.2986 30.2149 40.5636 31.7755C40.5931 31.9816 40.5784 32.1583 40.5784 32.335Z" fill="#2B6448"/>
</svg>
