<svg width="57" height="57" viewBox="0 0 57 57" fill="none" xmlns="http://www.w3.org/2000/svg">
<path d="M28.3228 0.0159007C34.1531 0.0159007 39.9834 -0.0282679 45.8136 0.0306236C50.1716 0.0747922 53.3076 2.19489 55.354 5.96394C56.208 7.55401 56.576 9.26187 56.576 11.0728C56.576 22.4241 56.576 33.7607 56.576 45.1121C56.576 47.5413 56.0018 49.8087 54.5885 51.7815C52.3947 54.8586 49.3913 56.5223 45.5633 56.537C39.792 56.5517 34.0059 56.5517 28.2345 56.5517C22.4631 56.5517 16.677 56.5517 10.9057 56.5517C8.93281 56.5517 7.09245 56.0659 5.42877 55.0058C2.02778 52.8563 0.143255 49.7792 0.0549179 45.7746C-0.0481423 41.3872 0.0254721 36.9998 0.0254721 32.6124C0.0254721 25.457 0.0254721 18.287 0.0254721 11.1317C0.0254721 8.34905 0.908845 5.89033 2.73448 3.78496C4.81041 1.35568 7.4458 0.0306236 10.6701 0.0159007C16.5593 0.00117783 22.4337 0.0159007 28.3228 0.0159007ZM18.061 42.2558C18.0463 42.3883 18.0315 42.5061 18.0021 42.6386C17.6635 43.8165 17.4132 45.0237 17.3101 46.2457C17.0598 48.9695 17.6488 51.5901 18.5174 54.1519C18.6499 54.5494 18.856 54.7114 19.2977 54.7114C21.8153 54.6967 24.3329 54.7114 26.8506 54.6967C27.4689 54.6967 27.4689 54.6819 27.4836 54.0341C27.4836 52.7238 27.4836 51.4135 27.4836 50.1031C27.4836 49.9264 27.4689 49.7351 27.4984 49.5584C27.5573 49.1461 27.8075 48.9106 28.1903 48.8517C28.5731 48.7928 28.897 48.8664 29.1326 49.2345C29.3093 49.5142 29.3387 49.8087 29.324 50.1178C29.324 51.3987 29.324 52.6796 29.324 53.9605C29.324 54.6819 29.324 54.6967 30.0454 54.6967C32.5041 54.6967 34.9776 54.6967 37.4363 54.6967C38.0694 54.6967 38.0841 54.6967 38.2902 54.0636C38.8055 52.5618 39.1883 51.0307 39.3944 49.4553C39.5858 47.8652 39.5858 46.2899 39.203 44.7293C39.792 44.582 40.3809 44.4348 41.0287 44.2876C41.9121 47.8652 41.117 51.2515 40.1159 54.5936C40.3662 54.7261 40.5723 54.6819 40.7784 54.6819C42.4421 54.6819 44.1205 54.6819 45.7842 54.6819C47.9484 54.6672 49.8624 53.9016 51.4966 52.503C53.6756 50.6479 54.721 48.2333 54.7357 45.3771C54.7504 41.5197 54.7357 37.677 54.7357 33.8196C54.7357 26.3257 54.7357 18.8317 54.7357 11.3378C54.7357 9.40909 54.3087 7.61291 53.2487 6.00811C51.5114 3.40216 49.1115 1.91515 45.9167 1.90043C42.6335 1.87098 39.3355 1.90043 36.0523 1.90043C35.4634 1.90043 35.4487 1.90043 35.4045 2.4599C35.2131 4.59472 34.4917 6.49397 32.9605 8.05459C32.7691 8.24599 32.6955 8.46683 32.6955 8.74657C32.6514 10.5722 33.2108 11.3672 34.9481 11.9414C35.0659 11.9856 35.1984 12.015 35.3162 12.0592C36.3468 12.3684 37.3921 12.6334 38.408 13.0015C41.2642 14.0174 43.1193 15.9313 43.6346 18.9937C43.723 19.4795 43.7966 19.9507 43.8555 20.4365C44.1352 22.6008 44.3855 24.7651 44.6652 26.9293C44.7536 27.6213 44.7536 27.6213 45.4161 27.7685C46.1964 27.9452 46.962 28.166 47.6687 28.5341C48.611 29.0347 49.1115 29.7856 49.0968 30.8898C49.0821 32.9951 49.0821 35.1005 49.0821 37.2059C49.0821 38.3543 48.611 39.2818 47.757 40.0474C47.0651 40.651 46.2406 40.9897 45.4014 41.3283C42.5599 42.4914 39.63 43.3159 36.5824 43.7134C33.3875 44.1404 30.1779 44.1404 26.9978 43.5073C24.6421 43.0509 22.3748 42.3294 20.1516 41.4461C16.7359 40.0768 13.2024 39.4879 9.52173 39.7529C9.28616 39.7677 9.06532 39.7824 8.82975 39.7677C8.10833 39.7235 7.59303 39.2524 7.59303 38.5457C7.56358 36.3372 7.56358 34.1288 7.57831 31.9204C7.59303 31.1548 8.19667 30.5659 8.94754 30.5217C11.9952 30.3745 14.9986 30.5511 17.9579 31.3609C19.6363 31.832 21.2559 32.4946 22.9048 33.0688C25.2458 33.8785 27.6309 34.4527 30.1043 34.6588C33.255 34.9386 36.3615 34.5999 39.4239 33.8785C41.544 33.3779 43.6199 32.7007 45.6075 31.7731C46.0934 31.5376 46.5792 31.302 46.9767 30.9192C47.2565 30.6395 47.2565 30.4481 46.9326 30.242C46.3731 29.9033 45.7547 29.6825 44.9891 29.5942C45.2983 30.4628 44.8125 30.7131 44.1941 30.9045C43.9291 30.9928 43.6935 31.1548 43.3991 31.1695C43.0604 30.5364 43.2077 29.8297 43.0899 29.1525C42.8396 27.7685 42.766 26.3699 42.5599 24.9712C42.3832 23.8081 42.2949 22.645 42.1329 21.4819C41.9562 20.2451 41.8532 18.9937 41.3673 17.8159C41.0434 17.0208 40.5576 16.3583 39.8803 15.8135C39.1 15.1805 38.1724 14.8713 37.2596 14.5621C36.2143 14.2088 35.1543 13.9437 34.1089 13.6051C32.46 13.0604 31.3116 12.0298 30.973 10.2483C30.9435 10.0716 30.973 9.83606 30.7521 9.67411C30.0012 10.0569 29.1915 10.2189 28.3228 10.2189C27.4689 10.2041 26.7033 9.8655 25.923 9.64466C25.8052 9.80661 25.8347 9.93912 25.8052 10.0569C25.658 10.8961 25.393 11.6764 24.7452 12.2948C24.0827 12.9279 23.3612 13.4137 22.4779 13.6935C21.1675 14.1204 19.8425 14.5179 18.5321 14.9596C16.7359 15.5633 15.6317 16.8147 15.1753 18.6551C14.8367 19.9948 14.7189 21.3641 14.557 22.7333C14.4392 23.7197 14.3214 24.7062 14.1889 25.6926C14.0416 26.8263 13.7914 27.9599 13.7766 29.1083C13.6736 29.1083 13.5852 29.1083 13.4822 29.0936C13.173 28.8875 12.8344 28.9611 12.4957 29.02C11.8921 28.9758 11.8921 28.9758 11.9363 28.4458C11.9363 28.3722 11.951 28.2985 11.9657 28.2102C12.3927 25.2362 12.7019 22.2474 13.1436 19.2881C13.6 16.1963 15.2784 14.1499 18.1935 13.0751C19.3566 12.6481 20.5492 12.3684 21.727 12.015C23.4348 11.4997 24.0974 10.5722 24.0974 8.79074C24.0974 8.46683 24.009 8.21654 23.7735 7.96625C23.052 7.21539 22.5073 6.36146 22.1098 5.40447C21.6534 4.30026 21.462 3.13715 21.3442 1.98877C21.0939 1.84154 20.8583 1.90043 20.6375 1.90043C17.369 1.90043 14.1153 1.88571 10.8468 1.91515C7.4458 1.9446 4.92819 3.54939 3.19089 6.40563C2.20446 7.92209 1.91 9.65938 1.91 11.4703C1.92472 22.7333 1.92472 34.011 1.91 45.274C1.91 45.8188 1.95417 46.3488 2.01306 46.8788C2.48419 50.7068 5.67906 54.0194 9.507 54.52C11.8479 54.8292 14.2183 54.6378 16.5887 54.623C16.6034 54.623 16.6182 54.5936 16.677 54.5494C16.4562 53.7838 16.2206 53.0035 16.0145 52.2232C15.2195 49.2639 15.1459 46.2899 15.9115 43.3159C16.044 42.7859 16.1176 42.2117 16.4709 41.7405C17.0009 41.873 17.5457 42.0203 18.061 42.2558ZM21.0792 34.3938C21.0792 35.1594 21.1086 35.8219 21.0645 36.4845C21.035 37.0439 20.6964 37.3531 20.1958 37.3531C19.6952 37.3531 19.3419 37.0292 19.2977 36.4992C19.2683 36.1164 19.283 35.7336 19.283 35.3508C19.2977 33.4957 19.2977 33.4957 17.4868 33.1424C17.4574 33.1424 17.4426 33.1277 17.4132 33.1277C17.1629 33.054 17.0157 33.1277 17.0157 33.4074C17.0157 33.6871 17.0304 33.9669 17.0009 34.2466C16.9421 34.8502 16.4709 35.1447 15.8967 34.968C15.455 34.8355 15.2784 34.541 15.2342 33.9669C15.2048 33.5399 15.4109 33.0246 15.1164 32.7154C14.7925 32.3915 14.233 32.524 13.7914 32.421C13.6736 32.3915 13.5411 32.4062 13.4086 32.3768C13.0552 32.3179 12.9669 32.4798 12.9669 32.8037C12.9816 33.4663 12.9816 34.1435 12.9669 34.8061C12.9522 35.4686 12.6724 35.763 12.113 35.763C11.5682 35.763 11.2443 35.4686 11.2001 34.8355C11.1707 34.4233 11.2001 34.011 11.2001 33.5988C11.2001 32.1412 11.5535 32.3473 9.91924 32.3179C9.507 32.3179 9.38922 32.4798 9.40394 32.8626C9.41867 34.3791 9.41867 35.8956 9.40394 37.3973C9.40394 37.7948 9.55117 37.8979 9.90452 37.839C10.0076 37.8242 10.1106 37.8242 10.2137 37.8242C12.5546 37.7359 14.8809 37.8979 17.1629 38.4868C19.1799 39.0021 21.1086 39.7824 23.0668 40.4596C25.4224 41.2841 27.8517 41.8436 30.3399 42.0055C34.5212 42.2853 38.57 41.6227 42.5304 40.3124C43.6935 39.9296 44.8714 39.5174 45.9461 38.9285C46.7412 38.4868 47.2123 37.839 47.1828 36.882C47.1681 36.4256 47.1828 35.9544 47.1828 35.498C47.1828 34.7177 47.1828 33.9227 47.1828 33.0099C46.6234 33.2749 46.2111 33.4957 45.7695 33.6871C45.4308 33.8196 45.3278 34.0257 45.3425 34.3938C45.3719 35.13 45.3719 35.8808 45.3572 36.6317C45.3425 37.147 45.0039 37.4415 44.5327 37.4415C44.0616 37.4415 43.6641 37.147 43.6199 36.6906C43.5757 36.2047 43.6052 35.7189 43.5757 35.233C43.561 35.0416 43.6641 34.8208 43.4285 34.6588C42.869 34.8208 42.3096 34.9975 41.7501 35.13C41.382 35.2183 41.2643 35.4097 41.2937 35.7925C41.3231 36.2047 41.3084 36.617 41.2642 37.0145C41.2201 37.3826 40.9845 37.6181 40.6164 37.6917C40.2336 37.7654 39.9097 37.6476 39.6742 37.3237C39.527 37.1028 39.5122 36.8525 39.4975 36.5875C39.4828 36.3225 39.5858 36.0281 39.3944 35.7778C38.9086 35.8808 38.4227 35.9839 37.9516 36.0722C37.2155 36.2047 37.2155 36.2047 37.2155 36.9409C37.2155 37.6034 37.2302 38.2807 37.2007 38.9432C37.1713 39.5027 36.8327 39.7971 36.3174 39.7971C35.8168 39.7824 35.4782 39.4585 35.4634 38.899C35.434 38.2365 35.4487 37.5592 35.4634 36.8967C35.4634 36.617 35.4045 36.455 35.0806 36.4845C34.5948 36.5286 34.1089 36.5581 33.6231 36.5728C33.2844 36.5875 33.1814 36.7495 33.1961 37.0587C33.2108 37.3678 33.2108 37.677 33.1667 37.9862C33.1078 38.5015 32.8575 38.7223 32.3716 38.7371C31.8563 38.7518 31.5177 38.5015 31.4588 38.0009C31.4294 37.7212 31.4146 37.4415 31.4294 37.1617C31.4588 36.7789 31.341 36.5875 30.9288 36.5875C30.4871 36.5875 30.0601 36.5581 29.6185 36.4992C29.2062 36.4403 29.1179 36.6317 29.162 36.9703C29.1768 37.1175 29.1768 37.2795 29.162 37.4267C29.162 37.9715 29.1915 38.5015 29.1473 39.0462C29.1032 39.5174 28.7645 39.7971 28.3376 39.8118C27.8664 39.8266 27.5425 39.6057 27.4247 39.1493C27.3659 38.9285 27.3659 38.6929 27.3659 38.4573C27.3659 37.839 27.3659 37.2206 27.3806 36.617C27.3806 36.352 27.3217 36.1606 27.0272 36.1164C26.4236 36.0133 25.8494 35.7925 25.2163 35.7483C25.0838 36.0869 25.1574 36.4256 25.1427 36.7495C25.1133 37.3678 24.7893 37.7212 24.274 37.7212C23.7587 37.7212 23.3907 37.3678 23.3612 36.7789C23.3318 36.3667 23.3465 35.9544 23.3612 35.5422C23.3612 35.3066 23.2729 35.1594 23.0521 35.0858C22.4337 34.8649 21.8301 34.6588 21.0792 34.3938ZM28.4701 1.85626C26.9536 1.85626 25.4372 1.85626 23.9207 1.85626C23.2876 1.85626 23.2876 1.87098 23.2876 2.51879C23.2876 2.76908 23.3171 3.01937 23.376 3.28438C23.5085 3.91746 23.7882 4.49165 24.0385 5.08057C24.5685 6.31729 25.4372 7.21539 26.615 7.81903C27.2333 8.14293 27.9106 8.39322 28.6026 8.29016C29.6626 8.14293 30.6196 7.73069 31.3852 6.93565C32.5925 5.69893 33.3139 4.25609 33.4906 2.51879C33.5642 1.84154 33.5789 1.84154 32.9311 1.84154C31.4441 1.85626 29.9571 1.85626 28.4701 1.85626Z" fill="#2B6448"/>
<path d="M43.3548 31.1399C43.6492 31.1252 43.8848 30.9485 44.1498 30.8749C44.7682 30.6835 45.254 30.4332 44.9449 29.5646C45.7104 29.6529 46.3288 29.8737 46.8883 30.2124C47.2269 30.4185 47.2269 30.6099 46.9324 30.8896C46.5496 31.2724 46.0638 31.5227 45.5632 31.7435C43.5904 32.6711 41.5144 33.3483 39.3796 33.8489C36.3173 34.5703 33.2107 34.909 30.06 34.6292C27.6013 34.4084 25.2015 33.8489 22.8605 33.0392C21.2116 32.465 19.6068 31.7877 17.9137 31.3313C14.9544 30.5215 11.9509 30.3449 8.90326 30.4921C8.15239 30.5215 7.53403 31.1252 7.53403 31.8908C7.50458 34.0992 7.51931 36.3076 7.54875 38.5161C7.56348 39.2228 8.07878 39.6792 8.78547 39.7381C9.02104 39.7528 9.24188 39.7381 9.47745 39.7233C13.1582 39.4583 16.6769 40.0472 20.1074 41.4165C22.3305 42.2998 24.5978 43.0213 26.9535 43.4777C30.1336 44.096 33.3432 44.096 36.5381 43.6838C39.571 43.2863 42.5156 42.4618 45.3571 41.2987C46.1816 40.9601 47.0208 40.6214 47.7128 40.0178C48.5667 39.2669 49.0378 38.3247 49.0378 37.1763C49.0378 35.0709 49.0378 32.9655 49.0525 30.8602C49.0673 29.756 48.5667 29.0051 47.6244 28.5045C46.9177 28.1364 46.1521 27.9009 45.3718 27.7389C44.7093 27.5917 44.7093 27.5917 44.621 26.8997C44.3412 24.7355 44.0762 22.5712 43.8112 20.4069C43.7523 19.9211 43.6787 19.4352 43.5904 18.9641C43.0751 15.887 41.22 13.973 38.3637 12.9571C37.3479 12.6038 36.3025 12.3241 35.2719 12.0149C35.1541 11.9707 35.0216 11.9413 34.9039 11.8971C33.1666 11.3229 32.6218 10.5279 32.6513 8.70224C32.6513 8.4225 32.7249 8.21638 32.9163 8.01026C34.4474 6.46436 35.1836 4.56511 35.3603 2.41557C35.4044 1.8561 35.4192 1.8561 36.0081 1.8561C39.2913 1.8561 42.5892 1.84138 45.8724 1.8561C49.0525 1.88555 51.4671 3.37256 53.2044 5.96378C54.2792 7.56858 54.6914 9.37949 54.6914 11.2935C54.6767 18.7874 54.6914 26.2814 54.6914 33.7753C54.6914 37.6327 54.7061 41.4754 54.6914 45.3328C54.6767 48.189 53.6314 50.6035 51.4524 52.4586C49.8181 53.8573 47.9189 54.6229 45.7399 54.6376C44.0762 54.6523 42.3978 54.6523 40.7341 54.6376C40.528 54.6376 40.3219 54.6818 40.0716 54.5493C41.0727 51.2072 41.8825 47.8356 40.9844 44.2433C40.3513 44.4052 39.7477 44.5377 39.1588 44.6849C39.0557 44.6997 38.9526 44.6997 38.8496 44.7144C36.8326 45.0825 34.8008 45.3622 32.7396 45.3916C29.1178 45.4211 25.599 44.8027 22.1686 43.6691C20.7846 43.2127 19.4448 42.5943 18.0314 42.2262C17.5161 41.9907 16.9714 41.8434 16.4266 41.7256C16.088 42.1968 16.0144 42.7562 15.8672 43.301C15.1163 46.275 15.1899 49.249 15.9702 52.2083C16.1764 52.9886 16.4119 53.769 16.6328 54.5345C16.5739 54.5787 16.5592 54.6082 16.5444 54.6082C14.1888 54.6229 11.8184 54.8143 9.46273 54.5051C5.63478 54.0045 2.45464 50.6919 1.96878 46.8639C1.89517 46.3339 1.86572 45.7892 1.86572 45.2591C1.86572 33.9961 1.86572 22.7184 1.86572 11.4554C1.86572 9.6445 2.16018 7.9072 3.11717 6.3613C4.85447 3.50506 7.37208 1.90027 10.7731 1.87082C14.0415 1.84138 17.2953 1.8561 20.5638 1.8561C20.7846 1.8561 21.0202 1.79721 21.2705 1.94444C21.3883 3.10754 21.5797 4.25593 22.0361 5.36014C22.4336 6.31713 22.9783 7.18578 23.6997 7.92193C23.9353 8.15749 24.0237 8.40778 24.0237 8.74641C24.0237 10.5279 23.3611 11.4554 21.6533 11.9707C20.4754 12.3241 19.2829 12.6185 18.1198 13.0308C15.2194 14.1203 13.5557 16.1667 13.0993 19.2585C12.6576 22.2326 12.3484 25.2213 11.9214 28.1806C11.9067 28.2542 11.9067 28.3278 11.892 28.4162C11.8478 28.9462 11.8478 28.9462 12.4515 28.9904C12.7754 29.1376 13.0993 29.1081 13.4379 29.064C13.541 29.064 13.6293 29.064 13.7324 29.0787C15.0133 29.2701 16.3236 29.4173 17.575 29.7707C17.9137 29.8737 18.0314 29.756 18.0756 29.432C18.2228 28.4162 18.3848 27.415 18.532 26.3991C19.062 27.2383 19.5332 28.1512 19.6215 29.1229C19.7246 30.3154 20.3871 30.7571 21.403 30.9779C21.4471 30.9927 21.506 30.9927 21.5502 31.0074C21.5649 31.0221 21.5797 31.0516 21.6091 31.0663C25.5548 32.6269 29.6183 33.525 33.8733 33.2453C34.7566 33.1864 35.6694 33.2158 36.5381 32.9655C36.7 32.9655 36.8473 32.9361 36.862 32.73C36.862 32.5533 36.862 32.3766 36.8326 32.1999C36.597 30.2271 37.127 28.4162 37.9809 26.6789C38.0398 26.5611 38.1134 26.458 38.2459 26.4139C38.2312 26.458 38.2165 26.5169 38.2165 26.5611C38.3932 28.4456 38.7465 30.3007 39.0115 32.1705C39.0557 32.4502 39.2029 32.4797 39.4532 32.4061C40.7636 32.0233 42.1181 31.7288 43.3548 31.1399Z" fill="#FDFDFD"/>
<path d="M18.5321 26.4139C18.3849 27.4298 18.2082 28.4309 18.0757 29.4468C18.0315 29.7707 17.9137 29.8885 17.5751 29.7854C16.3236 29.4321 15.0133 29.2849 13.7324 29.0935C13.7471 27.9451 13.9974 26.8114 14.1447 25.6777C14.2772 24.6913 14.395 23.7049 14.5127 22.7185C14.6747 21.3492 14.7925 19.98 15.1311 18.6402C15.5875 16.8146 16.6917 15.5484 18.4879 14.9448C19.7982 14.5031 21.1233 14.1056 22.4336 13.6786C23.3023 13.3989 24.0384 12.913 24.701 12.2799C25.3488 11.6468 25.6138 10.8813 25.761 10.0421C25.7757 9.92427 25.761 9.79177 25.8788 9.62981C26.6591 9.85066 27.4247 10.1893 28.2786 10.204C29.1473 10.2187 29.957 10.0421 30.7079 9.65926C30.9287 9.80649 30.8993 10.0568 30.9287 10.2335C31.2674 12.0149 32.4158 13.0455 34.0647 13.5903C35.11 13.9289 36.1848 14.1939 37.2154 14.5473C38.1282 14.8564 39.0558 15.1803 39.8361 15.7987C40.5133 16.3434 40.9992 17.006 41.3231 17.801C41.7942 18.9788 41.912 20.2303 42.0887 21.467C42.2506 22.6301 42.3537 23.7932 42.5156 24.9563C42.7218 26.3403 42.7954 27.7537 43.0457 29.1376C43.1635 29.8149 43.0162 30.5216 43.3548 31.1547C42.1034 31.7436 40.7636 32.0528 39.4386 32.4208C39.203 32.4944 39.041 32.465 38.9969 32.1853C38.7319 30.3155 38.3785 28.4604 38.2018 26.5758C38.2018 26.5317 38.2166 26.4728 38.2313 26.4286C38.1871 26.09 38.3049 25.7808 38.4521 25.4716C39.1736 23.8816 39.1147 22.2473 38.6141 20.6131C38.5699 20.4659 38.5257 20.3186 38.4374 20.1861C38.1577 19.7592 37.7602 19.6266 37.3185 19.818C36.8621 20.0094 36.7001 20.3481 36.8179 20.8634C36.8621 21.0695 36.921 21.2609 36.9651 21.4523C37.1712 22.3357 37.3332 23.219 37.024 24.0877C36.7148 24.9858 36.3615 25.8544 35.9345 26.7084C35.1837 28.1512 35.007 29.7265 34.9039 31.3019C34.8745 31.8319 34.8745 32.4503 35.1689 32.8478C35.4339 33.2011 36.0376 32.8772 36.4793 32.9508C36.5087 32.9508 36.5234 32.9508 36.5529 32.9656C35.6842 33.2306 34.7861 33.1864 33.888 33.2453C29.6184 33.525 25.5549 32.6269 21.6239 31.0663C21.6092 31.0516 21.5944 31.0369 21.565 31.0074C21.9478 30.6394 21.7858 30.1829 21.7269 29.7854C21.565 28.6665 21.2264 27.5917 20.7258 26.5758C20.5049 26.1194 20.3135 25.6336 20.1074 25.1772C19.7099 24.2938 19.5038 23.381 19.6216 22.4093C19.6805 21.9087 19.8424 21.4081 19.9013 20.9075C19.9896 20.3186 19.7246 19.9064 19.2388 19.7739C18.856 19.6708 18.2082 20.0242 18.1051 20.4953C17.8401 21.6142 17.6487 22.7332 17.8401 23.911C17.9726 24.7649 18.3701 25.56 18.5321 26.4139Z" fill="#539472"/>
<path d="M18.0609 42.2557C19.4743 42.6238 20.8141 43.2421 22.198 43.6985C25.6284 44.8322 29.1472 45.4506 32.769 45.4211C34.8302 45.4064 36.862 45.1267 38.879 44.7439C38.9821 44.7291 39.0852 44.7291 39.1882 44.7144C39.571 46.275 39.5857 47.8504 39.3796 49.4405C39.1882 51.0305 38.8054 52.547 38.2754 54.0487C38.0546 54.6671 38.0546 54.6818 37.4215 54.6818C34.9627 54.6818 32.4893 54.6818 30.0306 54.6818C29.3239 54.6818 29.3092 54.6671 29.3092 53.9457C29.3092 52.6648 29.3092 51.3839 29.3092 50.103C29.3092 49.7938 29.2797 49.4993 29.1178 49.2196C28.8969 48.8663 28.5583 48.7926 28.1755 48.8368C27.778 48.8957 27.5424 49.1313 27.4835 49.5435C27.4541 49.7202 27.4688 49.8969 27.4688 50.0883C27.4688 51.3986 27.4688 52.7089 27.4688 54.0193C27.4688 54.6671 27.4541 54.6818 26.8357 54.6818C24.3181 54.6818 21.8005 54.6818 19.2829 54.6965C18.8559 54.6965 18.6498 54.5493 18.5026 54.137C17.6339 51.5753 17.045 48.9546 17.2953 46.2309C17.3984 45.0089 17.6486 43.8016 17.9873 42.6238C18.0314 42.506 18.0462 42.3735 18.0609 42.2557Z" fill="#539472"/>
<path d="M21.079 34.3937C21.8299 34.644 22.4335 34.8649 23.0519 35.0563C23.2874 35.1299 23.3758 35.2771 23.361 35.5127C23.3463 35.9249 23.3463 36.3372 23.361 36.7494C23.3905 37.3236 23.7586 37.6917 24.2739 37.6917C24.7892 37.6917 25.0983 37.3383 25.1425 36.72C25.1572 36.3961 25.0836 36.0574 25.2161 35.7188C25.8492 35.763 26.4234 35.9985 27.027 36.0869C27.3215 36.131 27.3804 36.3224 27.3804 36.5875C27.3657 37.2058 27.3657 37.8242 27.3657 38.4278C27.3657 38.6634 27.3657 38.8989 27.4245 39.1198C27.5276 39.5615 27.8662 39.797 28.3374 39.7823C28.7791 39.7676 29.1177 39.4879 29.1471 39.0167C29.1913 38.4867 29.1618 37.942 29.1618 37.3972C29.1618 37.25 29.1766 37.088 29.1618 36.9408C29.1324 36.5875 29.2207 36.4108 29.6183 36.4697C30.0452 36.5286 30.4869 36.558 30.9286 36.558C31.3408 36.558 31.4586 36.7494 31.4292 37.1322C31.3997 37.4119 31.4144 37.6917 31.4586 37.9714C31.5175 38.4573 31.8561 38.7223 32.3714 38.7076C32.8573 38.6928 33.1076 38.472 33.1665 37.9567C33.1959 37.6475 33.2106 37.3383 33.1959 37.0291C33.1812 36.72 33.2843 36.558 33.6229 36.5433C34.1087 36.5286 34.5946 36.4991 35.0804 36.455C35.4043 36.4255 35.478 36.5875 35.4632 36.8672C35.4485 37.5297 35.4485 38.207 35.4632 38.8695C35.4927 39.429 35.8166 39.7529 36.3172 39.7676C36.8325 39.7823 37.1711 39.4731 37.2005 38.9137C37.23 38.2511 37.2153 37.5739 37.2153 36.9114C37.2153 36.1752 37.2153 36.1752 37.9514 36.0427C38.4225 35.9544 38.9084 35.8513 39.3942 35.7483C39.5856 36.0133 39.4826 36.293 39.4973 36.558C39.512 36.823 39.512 37.0733 39.674 37.2942C39.8948 37.6328 40.2334 37.7358 40.6162 37.6622C40.9843 37.5886 41.2199 37.353 41.2641 36.985C41.3082 36.5727 41.3229 36.1605 41.2935 35.763C41.2641 35.3949 41.3818 35.2035 41.7499 35.1004C42.3241 34.9679 42.8836 34.7765 43.4283 34.6293C43.6492 34.7913 43.5608 35.0121 43.5755 35.2035C43.605 35.6894 43.5755 36.1752 43.6197 36.6611C43.6639 37.1175 44.0614 37.4267 44.5325 37.4119C45.0184 37.4119 45.3423 37.1028 45.357 36.6022C45.3717 35.866 45.3717 35.1152 45.3423 34.3643C45.3276 34.011 45.4453 33.8048 45.7693 33.6576C46.2109 33.4809 46.6379 33.2454 47.1826 32.9804C47.1826 33.8932 47.1826 34.6735 47.1826 35.4685C47.1826 35.9249 47.1679 36.3961 47.1826 36.8525C47.2121 37.8095 46.741 38.4573 45.9459 38.8989C44.8564 39.4879 43.6933 39.9001 42.5302 40.2829C38.5698 41.5932 34.521 42.2558 30.3397 41.976C27.8368 41.7994 25.4222 41.2546 23.0666 40.4301C21.1084 39.7382 19.1797 38.9726 17.1627 38.4573C14.8807 37.8683 12.5692 37.7064 10.2135 37.7947C10.1104 37.7947 10.0074 37.7947 9.90433 37.8095C9.55098 37.8683 9.38903 37.7653 9.40375 37.3678C9.41847 35.8513 9.41847 34.3349 9.40375 32.8331C9.40375 32.4503 9.50681 32.2884 9.91905 32.2884C11.5386 32.3031 11.1999 32.1117 11.1999 33.5693C11.1999 33.9815 11.1705 34.3937 11.1999 34.806C11.2441 35.4244 11.568 35.7335 12.1128 35.7335C12.6722 35.7335 12.952 35.4391 12.9667 34.7765C12.9814 34.114 12.9814 33.4368 12.9667 32.7742C12.952 32.4503 13.055 32.2884 13.4084 32.3473C13.5409 32.362 13.6734 32.362 13.7912 32.3914C14.2329 32.4945 14.807 32.362 15.1162 32.6859C15.4107 32.9951 15.2046 33.5104 15.234 33.9373C15.2782 34.5263 15.4549 34.806 15.8965 34.9385C16.4707 35.1152 16.9271 34.8207 17.0008 34.2171C17.0302 33.9373 17.0155 33.6576 17.0155 33.3779C17.0155 33.0834 17.1627 33.0245 17.413 33.0981C17.4424 33.0981 17.4572 33.1129 17.4866 33.1129C19.2975 33.4662 19.2975 33.4662 19.2828 35.3213C19.2828 35.7041 19.2681 36.0869 19.2975 36.4697C19.3417 36.9997 19.695 37.3236 20.1956 37.3236C20.6962 37.3236 21.0348 37.0291 21.0643 36.455C21.1084 35.8366 21.079 35.1741 21.079 34.3937Z" fill="#FDFDFD"/>
<path d="M28.47 1.85597C29.957 1.85597 31.444 1.85597 32.9457 1.85597C33.5935 1.85597 33.5788 1.85597 33.5052 2.53322C33.3285 4.2558 32.6071 5.71336 31.3998 6.95008C30.6342 7.7304 29.6773 8.14264 28.6172 8.30459C27.9105 8.40765 27.248 8.14264 26.6296 7.83346C25.4518 7.22982 24.5831 6.33172 24.0531 5.095C23.8028 4.50609 23.5231 3.93189 23.3906 3.29881C23.3317 3.04852 23.3022 2.79823 23.3022 2.53322C23.3022 1.88541 23.3022 1.87069 23.9353 1.87069C25.4371 1.84125 26.9535 1.85597 28.47 1.85597Z" fill="#539472"/>
<path d="M13.4381 29.0787C13.0995 29.1229 12.7756 29.1376 12.4517 29.0051C12.7903 28.9462 13.1289 28.8726 13.4381 29.0787Z" fill="#539472"/>
<path d="M36.5384 32.9657C36.5089 32.9657 36.4942 32.9656 36.4647 32.9509C36.0231 32.8773 35.4047 33.2012 35.1544 32.8479C34.86 32.4503 34.86 31.832 34.8894 31.302C34.9925 29.7266 35.1839 28.1513 35.92 26.7084C36.3617 25.8692 36.7003 24.9859 37.0095 24.0878C37.3187 23.2044 37.1567 22.321 36.9506 21.4524C36.9064 21.261 36.8475 21.0548 36.8034 20.8634C36.6856 20.3334 36.8475 20.0095 37.304 19.8181C37.7604 19.6267 38.1432 19.7445 38.4229 20.1862C38.5112 20.3187 38.5554 20.4659 38.5996 20.6132C39.1149 22.2474 39.159 23.8669 38.4376 25.4717C38.3051 25.7809 38.1873 26.0901 38.2168 26.4287C38.0843 26.4729 38.0107 26.5759 37.9518 26.6937C37.1126 28.4457 36.5678 30.2419 36.8034 32.2148C36.8181 32.3915 36.8328 32.5681 36.8328 32.7448C36.8623 32.9362 36.7003 32.9509 36.5384 32.9657Z" fill="#2B6448"/>
<path d="M18.5323 26.414C18.3556 25.5601 17.9728 24.7798 17.8256 23.9111C17.6342 22.748 17.8256 21.6143 18.0906 20.4954C18.2084 20.0243 18.8415 19.6709 19.2243 19.774C19.7248 19.9065 19.9751 20.3187 19.8868 20.9076C19.8132 21.4082 19.6659 21.9088 19.607 22.4094C19.4893 23.3664 19.7101 24.2939 20.0929 25.1773C20.299 25.6484 20.4904 26.1195 20.7113 26.5759C21.2118 27.5918 21.5357 28.6666 21.7124 29.7855C21.7713 30.183 21.9333 30.6542 21.5505 31.0075C21.5063 30.9928 21.4474 30.9928 21.4032 30.9781C20.3874 30.7572 19.7248 30.3156 19.6218 29.123C19.5482 28.1513 19.077 27.2532 18.5323 26.414Z" fill="#2B6448"/>
</svg>
