<svg width="20" height="20" viewBox="0 0 20 20" fill="none" xmlns="http://www.w3.org/2000/svg">
    <path d="M17.5 4.375H2.5C2.15833 4.375 1.875 4.09167 1.875 3.75C1.875 3.40833 2.15833 3.125 2.5 3.125H17.5C17.8417 3.125 18.125 3.40833 18.125 3.75C18.125 4.09167 17.8417 4.375 17.5 4.375Z" fill="white"/>
    <path d="M10.3917 8.54163H2.5C2.15833 8.54163 1.875 8.25829 1.875 7.91663C1.875 7.57496 2.15833 7.29163 2.5 7.29163H10.3917C10.7333 7.29163 11.0167 7.57496 11.0167 7.91663C11.0167 8.25829 10.7417 8.54163 10.3917 8.54163Z" fill="white"/>
    <path d="M17.5 12.7084H2.5C2.15833 12.7084 1.875 12.425 1.875 12.0834C1.875 11.7417 2.15833 11.4584 2.5 11.4584H17.5C17.8417 11.4584 18.125 11.7417 18.125 12.0834C18.125 12.425 17.8417 12.7084 17.5 12.7084Z" fill="white"/>
    <path d="M10.3917 16.875H2.5C2.15833 16.875 1.875 16.5917 1.875 16.25C1.875 15.9083 2.15833 15.625 2.5 15.625H10.3917C10.7333 15.625 11.0167 15.9083 11.0167 16.25C11.0167 16.5917 10.7417 16.875 10.3917 16.875Z" fill="white"/>
</svg>
