<svg width="20" height="20" viewBox="0 0 20 20" fill="none" xmlns="http://www.w3.org/2000/svg">
    <path d="M16.8251 11.7167L15.8834 10.15C15.6751 9.80837 15.4918 9.15004 15.4918 8.75004V7.19171C15.4918 4.16671 13.0334 1.70837 10.0168 1.70837C6.99175 1.71671 4.53342 4.16671 4.53342 7.19171V8.74171C4.53342 9.14171 4.35009 9.80004 4.15009 10.1417L3.20842 11.7084C2.85009 12.3167 2.76675 13.0084 2.99175 13.6084C3.21675 14.2167 3.72509 14.7 4.39175 14.9167C5.29175 15.2167 6.20009 15.4334 7.12509 15.5917C7.21675 15.6084 7.30842 15.6167 7.40009 15.6334C7.51675 15.65 7.64175 15.6667 7.76675 15.6834C7.98342 15.7167 8.20009 15.7417 8.42509 15.7584C8.95009 15.8084 9.48342 15.8334 10.0168 15.8334C10.5418 15.8334 11.0668 15.8084 11.5834 15.7584C11.7751 15.7417 11.9668 15.725 12.1501 15.7C12.3001 15.6834 12.4501 15.6667 12.6001 15.6417C12.6918 15.6334 12.7834 15.6167 12.8751 15.6C13.8084 15.45 14.7334 15.2167 15.6334 14.9167C16.2751 14.7 16.7668 14.2167 17.0001 13.6C17.2334 12.975 17.1668 12.2917 16.8251 11.7167ZM10.6251 8.33337C10.6251 8.68337 10.3418 8.96671 9.99175 8.96671C9.64175 8.96671 9.35842 8.68337 9.35842 8.33337V5.75004C9.35842 5.40004 9.64175 5.11671 9.99175 5.11671C10.3418 5.11671 10.6251 5.40004 10.6251 5.75004V8.33337Z" fill="white"/>
    <path d="M12.358 16.675C12.008 17.6416 11.083 18.3333 9.99966 18.3333C9.34132 18.3333 8.69132 18.0666 8.23299 17.5916C7.96632 17.3416 7.76632 17.0083 7.64966 16.6666C7.75799 16.6833 7.86632 16.6916 7.98299 16.7083C8.17466 16.7333 8.37466 16.7583 8.57466 16.775C9.04966 16.8166 9.53299 16.8416 10.0163 16.8416C10.4913 16.8416 10.9663 16.8166 11.433 16.775C11.608 16.7583 11.783 16.75 11.9497 16.725C12.083 16.7083 12.2163 16.6916 12.358 16.675Z" fill="white"/>
</svg>
