<svg width="17" height="17" viewBox="0 0 17 17" fill="none" xmlns="http://www.w3.org/2000/svg">
<path d="M16.9999 3.06122C16.9757 3.14973 16.9653 3.24504 16.9272 3.32334C16.8164 3.5446 16.7332 3.7999 16.567 3.97351C16.1236 4.44327 15.6387 4.87559 15.1814 5.31471C13.9864 4.14031 12.7775 2.95229 11.5825 1.77789C12.0259 1.32856 12.4589 0.845183 12.9438 0.416272C13.5881 -0.148801 14.6653 -0.135185 15.3096 0.436696C15.7495 0.824759 16.1548 1.25027 16.567 1.66896C16.8198 1.92767 16.9203 2.26467 16.9999 2.60508C16.9999 2.75826 16.9999 2.90804 16.9999 3.06122Z" fill="black"/>
<path d="M10.4915 2.81272C11.7073 4.00755 12.9127 5.19216 14.1285 6.38698C14.0904 6.42443 14.0523 6.46868 14.0107 6.50953C10.9625 9.5051 7.9109 12.5041 4.85927 15.4962C4.76228 15.5915 4.62719 15.663 4.49556 15.6971C3.16545 16.0307 1.83534 16.3541 0.505232 16.6808C0.148458 16.7659 -0.0697637 16.5481 0.0202958 16.1975C0.352824 14.8733 0.688815 13.5525 1.02827 12.2283C1.05252 12.133 1.10794 12.0343 1.17721 11.9662C4.24963 8.94002 7.32898 5.91722 10.4049 2.89101C10.4326 2.86378 10.4603 2.83995 10.4915 2.81272Z" fill="black"/>
</svg>
