<svg width="58" height="57" viewBox="0 0 58 57" fill="none" xmlns="http://www.w3.org/2000/svg">
<path d="M19.1956 38.2505C19.9628 38.128 20.433 37.5643 20.9032 37.0496C25.9269 31.6334 32.9799 30.8982 38.5233 33.398C40.4536 34.2557 42.0374 35.5547 43.3243 37.2212C43.6707 37.6868 43.9677 38.4956 44.8339 38.0545C45.4278 37.7359 45.4031 37.2212 44.7349 36.2164C43.6955 34.6479 42.3096 33.447 40.8 32.2951C41.4682 31.1187 42.4334 30.31 43.4728 29.6238C47.6056 26.8544 52.1343 26.2417 56.96 27.173C57.8015 27.3445 57.9499 27.7857 57.9499 28.5454C57.9252 32.2216 57.9252 35.9223 57.9252 39.5985C57.9252 44.7451 57.9252 49.8918 57.9005 55.0629C57.9005 56.4108 57.8757 56.4108 56.5394 56.2638C53.5697 55.8962 50.996 54.7198 48.7439 52.7837C47.2344 51.4848 47.6551 51.5338 45.9722 52.4161C40.2061 55.4305 34.044 56.4844 27.5602 56.0187C22.5118 55.6511 17.6613 54.3032 12.7118 53.4454C10.0639 52.9797 7.71288 51.9994 5.55987 50.4309C4.52048 49.6467 3.33261 49.0585 2.24373 48.3478C0.412424 47.1959 -0.428987 45.4803 0.214443 43.4707C1.13009 40.6033 1.30333 37.6133 1.9715 34.7214C3.18412 29.4032 5.65886 24.6487 8.80177 20.2373C11.7467 16.12 14.5679 11.9291 16.9436 7.46869C17.983 5.50806 19.5421 4.18464 21.6456 3.40039C25.234 2.07696 28.9461 1.12116 32.6334 0.189862C34.7617 -0.34931 36.494 0.238878 37.6571 2.22401C38.449 3.59645 39.3894 4.87086 40.1319 6.2433C41.2455 8.25294 40.9733 9.993 39.2657 11.537C36.9642 13.5956 34.2173 14.772 31.1239 15.0416C29.441 15.1887 27.9067 14.6005 26.6941 13.3261C25.8032 12.4193 25.4567 12.4438 24.5658 13.3506C24.0709 13.8652 23.7491 14.4779 23.4274 15.1396C21.9426 18.2521 21.3239 21.5117 21.5466 24.9428C21.6951 27.32 21.7446 29.7218 21.3982 32.0991C21.0764 34.3048 20.3588 36.3879 19.1709 38.2995L19.1956 38.3486V38.2505ZM31.8168 49.034C33.6233 49.2545 35.5784 48.7889 37.5334 48.2497C38.9192 47.8576 40.1566 47.1959 41.394 46.5097C41.9384 46.2156 42.3344 45.7254 41.9879 45.0392C41.6415 44.3285 41.0475 44.4265 40.4288 44.6226C40.1814 44.6961 39.9339 44.8431 39.6864 44.9657C38.3253 45.7009 36.89 46.1666 35.4299 46.5832C33.9698 46.9998 32.4602 47.2939 30.9259 47.0733C28.9461 46.8038 26.9663 46.4361 25.0608 45.7499C23.7739 45.2843 23.1552 45.4313 22.9325 46.093C22.685 46.8038 23.0067 47.2694 24.2688 47.7841C26.5951 48.6664 29.0451 49.1565 31.8168 49.034ZM5.13917 39.1818C5.13917 39.5494 5.11442 39.9416 5.13917 40.3092C5.18866 40.8238 5.60936 41.0444 6.05481 41.0689C6.52501 41.0934 6.89622 40.8729 7.01996 40.3582C7.06945 40.1376 7.04471 39.9171 7.06945 39.721C7.66339 35.2116 8.87601 30.9227 11.326 27.0504C11.4992 26.7564 11.6477 26.4868 11.6725 26.1437C11.6972 25.678 11.6477 25.2614 11.1775 25.0408C10.6826 24.8202 10.1876 24.8938 9.8659 25.3594C9.49469 25.8986 9.12348 26.4377 8.82652 27.0259C8.18308 28.3494 7.5644 29.6728 6.99521 31.0207C5.88159 33.6185 5.36189 36.3879 5.13917 39.1818Z" fill="#2C6E49"/>
<path d="M31.8168 49.034C29.0451 49.1565 26.5952 48.6664 24.2442 47.7596C22.9821 47.2694 22.6603 46.7793 22.9078 46.0685C23.1553 45.4068 23.774 45.2598 25.0361 45.7254C26.9416 46.4116 28.9214 46.7793 30.9012 47.0488C32.4355 47.2694 33.9451 46.9753 35.4052 46.5587C36.8653 46.142 38.3254 45.6764 39.6617 44.9412C39.9092 44.8186 40.1567 44.6716 40.4042 44.5981C40.9981 44.4265 41.6168 44.304 41.9632 45.0147C42.3097 45.7009 41.9385 46.1666 41.3693 46.4852C40.1319 47.1714 38.8946 47.8576 37.5087 48.2252C35.5784 48.7644 33.6234 49.2545 31.8168 49.034Z" fill="#4C956C"/>
<path d="M5.13919 39.1818C5.36191 36.3634 5.8816 33.6185 6.99523 30.9962C7.56442 29.6483 8.1831 28.3249 8.82653 27.0014C9.1235 26.4132 9.49471 25.8741 9.86592 25.3349C10.1876 24.8693 10.6826 24.7957 11.1775 25.0163C11.6477 25.2369 11.6972 25.678 11.6725 26.1192C11.6477 26.4623 11.524 26.7318 11.326 27.0259C8.87603 30.9227 7.66341 35.2116 7.06947 39.6965C7.04473 39.9171 7.06947 40.1376 7.01998 40.3337C6.89624 40.8239 6.50028 41.0444 6.05483 41.0444C5.60938 41.0199 5.18868 40.7993 5.13919 40.2847C5.08969 39.9661 5.13919 39.574 5.13919 39.1818Z" fill="#4C956C"/>
<path d="M19.1958 38.2505V38.3241L19.1709 38.275L19.1958 38.2505Z" fill="#22684A"/>
</svg>
