<svg width="184" height="184" viewBox="0 0 184 184" fill="none" xmlns="http://www.w3.org/2000/svg">
<path d="M177.522 91.9981C180.364 88.6889 182.355 84.7364 183.324 80.4835C184.292 76.2305 184.208 71.8055 183.079 67.5924C181.95 63.3793 179.81 59.5052 176.845 56.3063C173.88 53.1074 170.179 50.6803 166.063 49.2355C166.87 44.9487 166.618 40.5299 165.33 36.3624C164.042 32.195 161.756 28.4047 158.672 25.3206C155.587 22.2364 151.797 19.9514 147.629 18.6639C143.461 17.3764 139.043 17.1252 134.756 17.9321C133.312 13.8156 130.886 10.1137 127.687 7.14778C124.488 4.18188 120.613 2.04163 116.399 0.912857C112.186 -0.215917 107.76 -0.299097 103.507 0.670539C99.2537 1.64017 95.3015 3.63332 91.9933 6.47692C88.6842 3.63528 84.7317 1.64393 80.4788 0.675631C76.2258 -0.292665 71.8008 -0.208665 67.5876 0.92034C63.3745 2.04935 59.5004 4.18926 56.3015 7.15444C53.1026 10.1196 50.6756 13.8205 49.2308 17.9361C44.9443 17.1304 40.5259 17.3828 36.359 18.6712C32.1921 19.9595 28.4024 22.2451 25.3187 25.3296C22.2351 28.4141 19.9505 32.2043 18.6631 36.3715C17.3758 40.5388 17.1246 44.9572 17.9314 49.2435C13.8158 50.6883 10.1149 53.1154 7.1497 56.3143C4.18451 59.5132 2.04459 63.3872 0.915583 67.6004C-0.213423 71.8135 -0.297435 76.2385 0.670861 80.4915C1.63916 84.7444 3.63054 88.6969 6.47219 92.006C3.62968 95.3151 1.63768 99.2678 0.669109 103.521C-0.299462 107.775 -0.215377 112.2 0.914122 116.414C2.04362 120.627 4.18437 124.501 7.15057 127.7C10.1168 130.899 13.8188 133.325 17.9353 134.769C17.1279 139.055 17.3788 143.474 18.6663 147.641C19.9538 151.809 22.239 155.599 25.3234 158.683C28.4079 161.767 32.1984 164.052 36.3661 165.339C40.5337 166.626 44.9524 166.876 49.2387 166.068C50.6835 170.184 53.1106 173.884 56.3095 176.85C59.5084 179.815 63.3825 181.955 67.5956 183.084C71.8088 184.213 76.2337 184.297 80.4867 183.328C84.7397 182.36 88.6922 180.369 92.0013 177.527C95.3103 180.37 99.2631 182.362 103.517 183.33C107.77 184.299 112.195 184.215 116.409 183.085C120.622 181.956 124.497 179.815 127.695 176.849C130.894 173.883 133.32 170.181 134.764 166.064C139.05 166.871 143.469 166.62 147.637 165.333C151.804 164.045 155.595 161.76 158.679 158.676C161.763 155.591 164.048 151.801 165.336 147.633C166.623 143.466 166.874 139.047 166.067 134.761C170.183 133.316 173.884 130.889 176.85 127.69C179.815 124.491 181.955 120.617 183.084 116.403C184.212 112.19 184.296 107.765 183.327 103.512C182.357 99.2588 180.365 95.3065 177.522 91.9981Z" fill="#4C956C"/>
<path d="M75.4825 127.117L49.9166 101.567C48.9464 100.595 48.4014 99.2781 48.4014 97.9048C48.4014 96.5316 48.9464 95.2144 49.9166 94.2426L53.0226 91.1326C53.9945 90.1623 55.3116 89.6174 56.6849 89.6174C58.0581 89.6174 59.3753 90.1623 60.3471 91.1326L78.9314 109.705L122.699 63.1944C123.641 62.1951 124.94 61.6104 126.313 61.5685C127.685 61.5267 129.018 62.0311 130.019 62.9711L133.209 65.9814C134.209 66.9233 134.795 68.224 134.837 69.5974C134.879 70.9709 134.373 72.3048 133.432 73.3059L82.9305 127.001C82.455 127.508 81.8825 127.914 81.2469 128.195C80.6114 128.476 79.9258 128.627 79.231 128.637C78.5362 128.648 77.8462 128.519 77.2023 128.258C76.5583 127.997 75.9734 127.609 75.4825 127.117Z" fill="#2C6E49"/>
</svg>
